<svg width="106" height="20" viewBox="0 0 106 20" fill="none" xmlns="http://www.w3.org/2000/svg">
<g clip-path="url(#clip0_577_4828)">
<path d="M8.72406 9.78697C8.72406 7.98942 7.3859 6.72607 5.74217 6.72607C4.09843 6.72607 2.76027 8.01071 2.76027 9.78697C2.76027 11.5419 4.09843 12.8479 5.74217 12.8479C7.38756 12.8463 8.72406 11.5845 8.72406 9.78697ZM8.74755 15.1371V13.7459C7.93659 14.7094 6.7294 15.3075 5.2838 15.3075C2.28007 15.3075 0 12.9528 0 9.78697C0 6.64084 2.36738 4.24518 5.35096 4.24518C6.75463 4.24518 7.93831 4.84491 8.74921 5.78548V4.43689H11.4457V15.1371H8.74755Z" fill="black"/>
<path d="M24.5439 12.7611C23.6003 12.7611 23.3384 12.4186 23.3384 11.5206V6.77024H25.0711V4.43687H23.3384V1.82656H20.5748V4.43687H17.0153V3.78634C17.0153 2.88674 17.3662 2.54427 18.3316 2.54427H18.9378V0.46814H17.608C15.3279 0.46814 14.2533 1.19569 14.2533 3.42093V4.43523H12.7188V6.76863H14.2533V15.1354H17.017V6.76863H20.5764V12.0122C20.5764 14.1948 21.4311 15.1371 23.6675 15.1371H25.0929V12.7611H24.5439Z" fill="black"/>
<path d="M34.4549 8.82349C34.2584 7.43226 33.0949 6.59819 31.7366 6.59819C30.3766 6.59819 29.2584 7.41097 28.9746 8.82349H34.4549ZM28.9511 10.4932C29.1493 12.0761 30.3111 12.9757 31.7803 12.9757C32.9421 12.9757 33.8421 12.4399 34.3676 11.5845H37.1967C36.5385 13.8524 34.4549 15.3075 31.7148 15.3075C28.4038 15.3075 26.0801 13.0396 26.0801 9.80826C26.0801 6.5769 28.5365 4.24353 31.7819 4.24353C35.0493 4.24353 37.4167 6.59826 37.4167 9.80826C37.4167 10.0443 37.3948 10.2786 37.3511 10.4932H28.9511Z" fill="black"/>
<path d="M54.9875 9.78697C54.9875 8.05329 53.6493 6.72607 52.0056 6.72607C50.3618 6.72607 49.0236 8.01071 49.0236 9.78697C49.0236 11.5419 50.3618 12.8479 52.0056 12.8479C53.6493 12.8463 54.9875 11.5206 54.9875 9.78697ZM46.3037 4.43689H49.0001V5.82808C49.8111 4.84327 51.0166 4.24518 52.4639 4.24518C55.424 4.24518 57.7478 6.62117 57.7478 9.76568C57.7478 12.9118 55.3803 15.3091 52.3985 15.3091C51.0166 15.3091 49.8766 14.7733 49.0875 13.8754V19.5401H46.3037V4.43689Z" fill="black"/>
<path d="M67.4672 9.78697C67.4672 7.98942 66.1307 6.72607 64.4852 6.72607C62.8415 6.72607 61.5034 8.01071 61.5034 9.78697C61.5034 11.5419 62.8415 12.8479 64.4852 12.8479C66.1307 12.8463 67.4672 11.5845 67.4672 9.78697ZM67.4908 15.1371V13.7459C66.6799 14.7094 65.4724 15.3075 64.0267 15.3075C61.0232 15.3075 58.7432 12.9528 58.7432 9.78697C58.7432 6.64084 61.1105 4.24518 64.0925 4.24518C65.496 4.24518 66.6799 4.84491 67.4908 5.78548V4.43689H70.1875V15.1371H67.4908Z" fill="black"/>
<path d="M41.4425 5.48561C41.4425 5.48561 42.1293 4.24518 43.8099 4.24518C44.5285 4.24518 44.9936 4.48605 44.9936 4.48605V7.216C44.9936 7.216 43.9795 6.60478 43.0476 6.72768C42.1158 6.85058 41.5265 7.68626 41.5299 8.80381V15.1387H38.7461V4.43853H41.4425V5.48561Z" fill="black"/>
<path d="M82.7808 4.43689L75.9725 19.5056H73.1016L75.7746 13.6803L71.2549 4.43689H74.509L77.1532 10.6128L79.8664 4.43689H82.7808Z" fill="black"/>
<path d="M104.514 4.19437L97.7642 0.392779C95.7827 -0.723117 93.3064 0.671347 93.3064 2.90478V3.29477C93.3064 3.64708 93.4993 3.97316 93.8115 4.14849L95.0861 4.86621C95.4603 5.07759 95.927 4.81377 95.927 4.39265V3.42259C95.927 2.93755 96.4647 2.63441 96.8944 2.87693L102.74 6.17055C103.171 6.41306 103.171 7.01935 102.74 7.26026L96.8944 10.5539C96.4647 10.7964 95.927 10.4932 95.927 10.0082V9.492C95.927 7.25858 93.4507 5.86249 91.468 6.98L84.7185 10.7816C82.7371 11.8975 82.7371 14.6897 84.7185 15.8056L91.468 19.6072C93.4488 20.7231 95.927 19.3286 95.927 17.0952V16.7052C95.927 16.3529 95.7342 16.0285 95.4219 15.8515L94.1474 15.1321C93.7732 14.9208 93.3064 15.1846 93.3064 15.6057V16.5758C93.3064 17.0608 92.7694 17.3639 92.339 17.1214L86.493 13.8278C86.0633 13.5853 86.0633 12.979 86.493 12.7365L92.339 9.44284C92.7694 9.20032 93.3064 9.50348 93.3064 9.98851V10.5047C93.3064 12.7381 95.7827 14.1343 97.7642 13.0167L104.514 9.21509C106.495 8.10245 106.495 5.31027 104.514 4.19437Z" fill="black"/>
</g>
<defs>
<clipPath id="clip0_577_4828">
<rect width="106" height="20" fill="white"/>
</clipPath>
</defs>
</svg>
