<svg width="30" height="14" viewBox="0 0 30 14" fill="none" xmlns="http://www.w3.org/2000/svg">
<path d="M11 14L30 8.25V13C30 13.5523 29.5523 14 29 14H11Z" fill="#FD6020"/>
<path fill-rule="evenodd" clip-rule="evenodd" d="M26.3937 0.11084C27.439 0.11084 28.0139 0.594382 28.0139 1.50774C28.0662 2.20619 27.5958 2.79719 26.9686 2.90464L28.3797 4.89254H27.2822L26.0801 2.95837H25.9756V4.89254H25.0871V0.11084H26.3937ZM25.9756 2.31367H26.2369C26.8118 2.31367 27.0731 2.04503 27.0731 1.56149C27.0731 1.13167 26.8118 0.863037 26.2369 0.863037H25.9756V2.31367ZM22.0034 4.89254H24.5122V4.08663H22.8919V2.79719H24.4599V1.99128H22.8919V0.916744H24.5122V0.11084H22.0034V4.89254ZM19.3902 3.33446L18.1881 0.11084H17.2474L19.1812 4.99999H19.6515L21.5853 0.11084H20.6446L19.3902 3.33446ZM8.78048 2.52856C8.78048 3.87174 9.82577 5 11.1324 5C11.5505 5 11.9164 4.89255 12.2822 4.73137V3.65683C12.0209 3.97919 11.655 4.1941 11.2369 4.1941C10.4007 4.1941 9.72124 3.54937 9.72124 2.68974V2.58229C9.66898 1.72266 10.3484 0.97048 11.1847 0.916753C11.6028 0.916753 12.0209 1.13166 12.2822 1.45402V0.379484C11.9686 0.164576 11.5505 0.110849 11.1847 0.110849C9.82577 0.00339533 8.78048 1.13166 8.78048 2.52856ZM7.16026 1.93756C6.63762 1.72266 6.48082 1.6152 6.48082 1.34657C6.53309 1.02421 6.79441 0.755571 7.108 0.809298C7.36932 0.809298 7.63065 0.970479 7.83971 1.18539L8.31009 0.540663C7.94423 0.218302 7.47385 0.00339376 7.00347 0.00339376C6.27176 -0.0503332 5.64459 0.540663 5.59232 1.29284V1.34657C5.59232 1.99129 5.85365 2.36738 6.68988 2.63601C6.89894 2.68974 7.108 2.7972 7.31706 2.90465C7.47385 3.0121 7.57838 3.17328 7.57838 3.38819C7.57838 3.76428 7.26479 4.08664 6.95121 4.08664H6.89894C6.48082 4.08664 6.11497 3.81801 5.95818 3.44192L5.38326 4.03292C5.69685 4.62391 6.32403 4.94627 6.95121 4.94627C7.78744 5 8.46688 4.35528 8.51915 3.49565V3.33447C8.46688 2.68974 8.20556 2.36738 7.16026 1.93756ZM4.12892 4.89254H5.01742V0.11084H4.12892V4.89254ZM0 0.110855H1.30662H1.56794C2.8223 0.164582 3.81532 1.23912 3.76306 2.52857C3.76306 3.22702 3.44947 3.87174 2.92682 4.35529C2.45644 4.73137 1.88153 4.94628 1.30662 4.89255H0V0.110855ZM1.14983 4.08663C1.56794 4.14036 2.03833 3.97918 2.35191 3.71054C2.6655 3.38818 2.8223 2.95837 2.8223 2.47482C2.8223 2.04501 2.6655 1.61519 2.35191 1.29283C2.03833 1.0242 1.56794 0.863016 1.14983 0.916743H0.888502V4.08663H1.14983Z" fill="black"/>
<path fill-rule="evenodd" clip-rule="evenodd" d="M14.9481 0C13.6415 0 12.5439 1.07454 12.5439 2.47144C12.5439 3.81461 13.5892 4.94288 14.9481 4.99661C16.307 5.05033 17.3523 3.92207 17.4046 2.52517C17.3523 1.12827 16.307 0 14.9481 0V0Z" fill="#FD6020"/>
</svg>
