<svg width="77" height="20" viewBox="0 0 77 20" fill="none" xmlns="http://www.w3.org/2000/svg">
<path d="M24.6226 3.99933C24.4641 3.99933 24.3295 4.11204 24.3047 4.26552L22.4704 15.6627C22.4637 15.7044 22.4663 15.7469 22.4781 15.7875C22.4898 15.828 22.5103 15.8656 22.5383 15.8976C22.5663 15.9296 22.6009 15.9554 22.64 15.973C22.6791 15.9906 22.7216 15.9998 22.7646 15.9998H24.94C25.0982 15.9998 25.2331 15.8868 25.2579 15.7336L25.7967 12.3867C25.8213 12.2334 25.9561 12.1205 26.1146 12.1205H28.0924C30.4033 12.1205 32.365 10.4686 32.7233 8.2301C33.0846 5.97271 31.2845 4.00423 28.7333 3.99933H24.6226ZM26.7373 6.54362H28.3197C29.6225 6.54362 30.0468 7.29676 29.9126 8.12963C29.7785 8.96429 29.1196 9.57909 27.8593 9.57909H26.2487L26.7373 6.54362ZM37.1477 7.31836C36.5984 7.32037 35.9664 7.43063 35.2568 7.72021C33.6291 8.38491 32.8474 9.75863 32.5155 10.7601C32.5155 10.7601 31.4589 13.8157 33.846 15.4943C33.846 15.4943 36.0598 17.1104 38.5519 15.3948L38.509 15.6627C38.5023 15.7043 38.5049 15.7468 38.5166 15.7874C38.5283 15.8279 38.5488 15.8654 38.5767 15.8974C38.6046 15.9295 38.6393 15.9552 38.6783 15.9728C38.7173 15.9905 38.7597 15.9997 38.8027 15.9998H40.8678C41.0263 15.9998 41.1609 15.8868 41.1857 15.7336L42.4419 7.92871C42.4486 7.88708 42.4461 7.84452 42.4344 7.80395C42.4227 7.76338 42.4022 7.72576 42.3743 7.6937C42.3464 7.66163 42.3117 7.63586 42.2727 7.61817C42.2336 7.60049 42.1911 7.5913 42.1481 7.59124H40.083C39.9245 7.59124 39.7897 7.70417 39.7651 7.85743L39.6976 8.27754C39.6976 8.27754 38.7959 7.31235 37.1477 7.31836ZM37.2153 9.78358C37.4524 9.78358 37.6693 9.81566 37.8639 9.87692C38.755 10.1571 39.2602 10.9958 39.114 11.9049C38.9337 13.0242 37.9967 13.8484 36.7951 13.8484C36.5582 13.8484 36.3413 13.8165 36.1464 13.7553C35.2556 13.4751 34.7473 12.6364 34.8935 11.7273C35.0738 10.608 36.0137 9.78358 37.2153 9.78358Z" fill="#003087"/>
<path d="M54.3609 3.99933C54.2024 3.99933 54.0678 4.11204 54.043 4.26552L52.2087 15.6627C52.202 15.7044 52.2046 15.7469 52.2163 15.7875C52.2281 15.828 52.2486 15.8656 52.2766 15.8976C52.3045 15.9296 52.3392 15.9554 52.3783 15.973C52.4174 15.9906 52.4599 15.9998 52.5029 15.9998H54.6783C54.8365 15.9998 54.9714 15.8868 54.9961 15.7336L55.535 12.3867C55.5595 12.2334 55.6944 12.1205 55.8528 12.1205H57.8307C60.1416 12.1205 62.103 10.4686 62.4611 8.2301C62.8226 5.97271 61.0228 4.00423 58.4716 3.99933H54.3609ZM56.4756 6.54362H58.058C59.3608 6.54362 59.7851 7.29676 59.6509 8.12963C59.5168 8.96429 58.8581 9.57909 57.5976 9.57909H55.987L56.4756 6.54362ZM66.8858 7.31836C66.3365 7.32037 65.7044 7.43063 64.9948 7.72021C63.3671 8.38491 62.5855 9.75863 62.2535 10.7601C62.2535 10.7601 61.1974 13.8157 63.5845 15.4943C63.5845 15.4943 65.7979 17.1104 68.2902 15.3948L68.2472 15.6627C68.2406 15.7044 68.2432 15.7469 68.2549 15.7875C68.2666 15.828 68.2872 15.8656 68.3151 15.8976C68.3431 15.9296 68.3778 15.9554 68.4169 15.973C68.4559 15.9906 68.4984 15.9998 68.5415 15.9998H70.6064C70.7648 15.9998 70.8994 15.8868 70.9242 15.7336L72.1808 7.92871C72.1876 7.88704 72.185 7.84444 72.1733 7.80384C72.1616 7.76324 72.1411 7.7256 72.1131 7.69353C72.0852 7.66145 72.0504 7.63569 72.0113 7.61803C71.9722 7.60038 71.9297 7.59123 71.8866 7.59124H69.8215C69.663 7.59124 69.5282 7.70417 69.5036 7.85743L69.4361 8.27754C69.4361 8.27754 68.534 7.31235 66.8858 7.31836ZM66.9533 9.78358C67.1905 9.78358 67.4074 9.81566 67.602 9.87692C68.493 10.1571 68.9982 10.9958 68.852 11.9049C68.6717 13.0242 67.7348 13.8484 66.5332 13.8484C66.2963 13.8484 66.0794 13.8165 65.8845 13.7553C64.9937 13.4751 64.4853 12.6364 64.6315 11.7273C64.8118 10.608 65.7517 9.78358 66.9533 9.78358Z" fill="#0070E0"/>
<path d="M43.4215 7.59123C43.2578 7.59123 43.1414 7.74782 43.1914 7.90041L45.4555 14.7837L43.4083 18.0275C43.3089 18.185 43.4245 18.3883 43.6134 18.3883H46.033C46.1022 18.3883 46.1702 18.3707 46.2304 18.3374C46.2907 18.3041 46.3412 18.2561 46.377 18.1981L52.7001 7.94986C52.7972 7.79237 52.6813 7.591 52.4935 7.591H50.0741C50.0042 7.59106 49.9356 7.60894 49.8749 7.64288C49.8142 7.67682 49.7636 7.72566 49.7281 7.78458L47.2391 11.9015L45.9757 7.81509C45.9345 7.68211 45.8092 7.591 45.6676 7.591L43.4215 7.59123Z" fill="#003087"/>
<path d="M74.5274 3.99933C74.3692 3.99933 74.2344 4.11226 74.2096 4.26552L72.3748 15.6623C72.368 15.704 72.3706 15.7466 72.3823 15.7872C72.394 15.8278 72.4145 15.8654 72.4425 15.8975C72.4704 15.9295 72.5052 15.9553 72.5443 15.973C72.5834 15.9906 72.6259 15.9998 72.669 15.9998H74.8444C75.0026 15.9998 75.1374 15.8868 75.1622 15.7336L76.9966 4.33636C77.0032 4.29476 77.0006 4.25225 76.9889 4.21173C76.9772 4.17122 76.9567 4.13366 76.9288 4.10164C76.9009 4.06962 76.8663 4.0439 76.8273 4.02624C76.7882 4.00858 76.7458 3.9994 76.7028 3.99933H74.5274Z" fill="#0070E0"/>
<path d="M6.48619 3.99933C6.34606 3.99944 6.21056 4.04851 6.10404 4.13772C5.99753 4.22694 5.92696 4.35044 5.90505 4.48605L4.93945 10.4862C4.98447 10.2059 5.23092 9.99943 5.52058 9.99943H8.3501C11.1978 9.99943 13.6142 7.96413 14.0557 5.20599C14.0886 5.00007 14.1072 4.79221 14.1115 4.58384C13.3878 4.21206 12.5377 3.99933 11.6062 3.99933H6.48619Z" fill="#001C64"/>
<path d="M14.1122 4.58405C14.1079 4.79242 14.0893 5.00028 14.0564 5.2062C13.6149 7.96434 11.1983 9.99964 8.3508 9.99964H5.52128C5.23185 9.99964 4.98517 10.2059 4.94015 10.4864L4.05229 16L3.49617 19.4589C3.48532 19.5257 3.48938 19.5941 3.5081 19.6592C3.52682 19.7243 3.55975 19.7847 3.6046 19.8362C3.64945 19.8876 3.70517 19.9289 3.7679 19.9573C3.83062 19.9856 3.89888 20.0002 3.96795 20.0002H7.03915C7.17929 20.0001 7.31478 19.951 7.4213 19.8618C7.52782 19.7726 7.59837 19.6491 7.62028 19.5135L8.42923 14.4866C8.45116 14.3509 8.52178 14.2273 8.6284 14.1381C8.73501 14.0489 8.87062 13.9999 9.01083 13.9999H10.819C13.6668 13.9999 16.0832 11.9646 16.5247 9.20642C16.8382 7.24885 15.8319 5.46749 14.1122 4.58405Z" fill="#0070E0"/>
<path d="M2.99711 0C2.70768 0 2.46099 0.20627 2.41598 0.486272L0.00593147 15.4589C-0.0397683 15.7431 0.184417 16.0002 0.478168 16.0002H4.05207L4.93947 10.4866L5.90506 4.48649C5.92697 4.35088 5.99754 4.22738 6.10406 4.13817C6.21058 4.04896 6.34607 3.99989 6.48621 3.99977H11.6062C12.5379 3.99977 13.3878 4.21273 14.1115 4.58428C14.161 2.07317 12.0461 0 9.13838 0H2.99711Z" fill="#003087"/>
</svg>
