<svg width="23" height="14" viewBox="0 0 23 14" fill="none" xmlns="http://www.w3.org/2000/svg">
<path d="M13.6475 6.90299C13.6475 10.7154 10.5924 13.806 6.82377 13.806C3.05511 13.806 0 10.7154 0 6.90299C0 3.09057 3.05511 0 6.82377 0C10.5924 0 13.6475 3.09057 13.6475 6.90299Z" fill="#ED0006"/>
<path d="M22.5001 6.90299C22.5001 10.7154 19.445 13.806 15.6763 13.806C11.9076 13.806 8.85254 10.7154 8.85254 6.90299C8.85254 3.09057 11.9076 0 15.6763 0C19.445 0 22.5001 3.09057 22.5001 6.90299Z" fill="#0099DF"/>
<path fill-rule="evenodd" clip-rule="evenodd" d="M11.25 1.64905C12.7172 2.91518 13.6476 4.79917 13.6476 6.90297C13.6476 9.00678 12.7172 10.8908 11.25 12.1569C9.78287 10.8908 8.85254 9.00678 8.85254 6.90297C8.85254 4.79917 9.78287 2.91518 11.25 1.64905Z" fill="#6C6BBD"/>
</svg>
