<svg width="23" height="14" viewBox="0 0 23 14" fill="none" xmlns="http://www.w3.org/2000/svg">
<path fill-rule="evenodd" clip-rule="evenodd" d="M11.25 12.1569C10.0584 13.1852 8.51276 13.806 6.82377 13.806C3.05511 13.806 0 10.7154 0 6.90299C0 3.09057 3.05511 0 6.82377 0C8.51276 0 10.0584 0.620752 11.25 1.64903C12.4416 0.620752 13.9872 0 15.6762 0C19.4449 0 22.5 3.09057 22.5 6.90299C22.5 10.7154 19.4449 13.806 15.6762 13.806C13.9872 13.806 12.4416 13.1852 11.25 12.1569Z" fill="#ED0006"/>
<path fill-rule="evenodd" clip-rule="evenodd" d="M11.25 12.1569C12.7172 10.8908 13.6475 9.0068 13.6475 6.90299C13.6475 4.79917 12.7172 2.91517 11.25 1.64903C12.4416 0.620752 13.9872 0 15.6762 0C19.4449 0 22.5 3.09057 22.5 6.90299C22.5 10.7154 19.4449 13.806 15.6762 13.806C13.9872 13.806 12.4416 13.1852 11.25 12.1569Z" fill="#F9A000"/>
<path fill-rule="evenodd" clip-rule="evenodd" d="M11.25 1.64905C12.7172 2.91518 13.6476 4.79917 13.6476 6.90297C13.6476 9.00678 12.7172 10.8908 11.25 12.1569C9.78287 10.8908 8.85254 9.00678 8.85254 6.90297C8.85254 4.79917 9.78287 2.91518 11.25 1.64905Z" fill="#FF5E00"/>
</svg>
