<svg width="83" height="20" viewBox="0 0 83 20" fill="none" xmlns="http://www.w3.org/2000/svg">
<g clip-path="url(#clip0_577_4839)">
<mask id="mask0_577_4839" style="mask-type:luminance" maskUnits="userSpaceOnUse" x="0" y="0" width="83" height="20">
<path d="M83 0.00439453H0V19.9998H83V0.00439453Z" fill="white"/>
</mask>
<g mask="url(#mask0_577_4839)">
<path d="M21.2639 6.29096C20.5983 4.89013 19.3362 3.98525 17.4345 3.98525C16.8508 3.99545 16.2772 4.14004 15.758 4.40778C15.2388 4.67555 14.7878 5.05937 14.4399 5.52963L14.3705 5.61445V0.124275C14.3705 0.0925454 14.358 0.0621175 14.3356 0.0396818C14.3132 0.0172455 14.2829 0.00463867 14.2512 0.00463867H11.5624C11.5312 0.0052088 11.5014 0.0180638 11.4795 0.0404382C11.4576 0.0628128 11.4453 0.0929188 11.4453 0.124275V15.8727C11.4453 15.9038 11.4577 15.9337 11.4796 15.9557C11.5016 15.9778 11.5314 15.9902 11.5624 15.9902H14.4421C14.4733 15.9902 14.5033 15.9779 14.5257 15.9559C14.5479 15.9339 14.5608 15.904 14.5613 15.8727V9.15786C14.5613 7.85275 15.4287 6.92828 16.8165 6.92828C18.3344 6.92828 18.7182 8.1812 18.7182 9.45802V15.8727C18.7182 15.9038 18.7305 15.9337 18.7525 15.9557C18.7744 15.9778 18.8042 15.9902 18.8353 15.9902H21.7084C21.7397 15.9902 21.7697 15.9779 21.792 15.9559C21.8143 15.9339 21.8272 15.904 21.8278 15.8727V9.0752C21.8278 8.84245 21.8278 8.61405 21.7974 8.39219C21.748 7.66514 21.5673 6.95312 21.2639 6.29096Z" fill="#5A31F4"/>
<path d="M6.88481 8.62499C6.88481 8.62499 5.41896 8.27913 4.87902 8.13992C4.33907 8.00071 3.39581 7.70488 3.39581 6.98924C3.39581 6.27359 4.15692 6.04519 4.9289 6.04519C5.70085 6.04519 6.55956 6.23226 6.62677 7.09147C6.62948 7.12245 6.64369 7.15122 6.66657 7.17221C6.68947 7.19315 6.71937 7.20468 6.75036 7.20459L9.58882 7.19371C9.60553 7.19375 9.62206 7.19034 9.63738 7.18368C9.65271 7.17703 9.66649 7.16727 9.67789 7.155C9.68929 7.14277 9.69806 7.12829 9.70362 7.11249C9.70917 7.09668 9.71146 7.0799 9.71025 7.06318C9.53462 4.31375 7.12983 3.33057 4.91154 3.33057C2.28124 3.33057 0.357863 5.07072 0.357863 6.98924C0.357863 8.39007 0.752516 9.70389 3.85551 10.6175C4.39979 10.7763 5.13923 10.9829 5.78543 11.1635C6.56171 11.381 6.98021 11.7094 6.98021 12.2271C6.98021 12.8275 6.11285 13.2451 5.26067 13.2451C4.02684 13.2451 3.15079 12.7861 3.07923 11.9617C3.0755 11.9316 3.06087 11.9038 3.03807 11.8837C3.01528 11.8637 2.98594 11.8527 2.95562 11.853L0.123674 11.866C0.107071 11.866 0.090639 11.8694 0.0753533 11.8759C0.0600678 11.8824 0.0462447 11.8919 0.0347087 11.9039C0.0231729 11.9158 0.0141591 11.93 0.00820902 11.9456C0.0022589 11.9611 -0.000506423 11.9777 7.61351e-05 11.9944C0.130181 14.5894 2.6282 15.988 4.9571 15.988C8.42657 15.988 9.99432 14.0304 9.99432 12.1967C9.99866 11.3353 9.80133 9.37325 6.88481 8.62499Z" fill="#5A31F4"/>
<path d="M43.4014 3.98088C41.9596 3.98088 40.7516 4.78135 39.9731 5.74717V4.094C39.9731 4.06322 39.961 4.03365 39.9395 4.0117C39.9183 3.98974 39.8889 3.9771 39.8582 3.97656H37.1651C37.1342 3.97656 37.1042 3.98891 37.0823 4.01093C37.0603 4.03298 37.0479 4.06287 37.0479 4.094V19.5379C37.0486 19.5686 37.0613 19.5981 37.0832 19.6195C37.1051 19.6411 37.1346 19.6532 37.1651 19.6532H40.047C40.0773 19.6532 40.1066 19.6411 40.1281 19.6195C40.1496 19.5979 40.1617 19.5684 40.1617 19.5379V14.461H40.2052C40.6626 15.1614 41.9138 16.001 43.549 16.001C46.6235 16.001 49.1868 13.443 49.1868 9.98661C49.1891 6.66945 46.6389 3.98088 43.4014 3.98088ZM43.1347 13.058C42.5279 13.0731 41.9298 12.9065 41.4178 12.5793C40.9058 12.2521 40.5022 11.7793 40.259 11.2212C40.016 10.6631 39.9441 10.0449 40.0529 9.44565C40.1614 8.84638 40.4457 8.29319 40.8691 7.85668C41.2926 7.42011 41.8362 7.12005 42.4305 6.99477C43.0245 6.86948 43.6425 6.92462 44.2052 7.15319C44.7682 7.38173 45.2502 7.77334 45.5903 8.27801C45.9302 8.7827 46.1125 9.37751 46.1142 9.98661C46.1204 10.3847 46.0481 10.7802 45.9018 11.1503C45.7554 11.5204 45.5374 11.8579 45.2606 12.1433C44.9839 12.4286 44.6536 12.6563 44.2885 12.8133C43.9238 12.9703 43.5317 13.0534 43.1347 13.058Z" fill="#5A31F4"/>
<path d="M28.5194 3.30237C25.8327 3.30237 24.4927 4.21813 23.417 4.95118L23.3845 4.97292C23.3291 5.01099 23.2901 5.06869 23.2753 5.13442C23.2603 5.20017 23.2706 5.2691 23.3043 5.32748L24.3669 7.16331C24.3867 7.19768 24.414 7.22721 24.4465 7.24975C24.4792 7.27232 24.5163 7.28738 24.5555 7.29384C24.5938 7.30077 24.633 7.29909 24.6705 7.28893C24.708 7.27876 24.7428 7.26042 24.7724 7.2351L24.8568 7.16551C25.4098 6.70001 26.2967 6.07789 28.4435 5.90823C29.6382 5.81255 30.6705 6.12576 31.4316 6.83922C32.2686 7.61361 32.7696 8.86434 32.7696 10.1847C32.7696 12.6144 31.3426 14.1413 29.0506 14.1718C27.1619 14.1609 25.8933 13.1734 25.8933 11.7138C25.8933 10.9395 26.2425 10.4348 26.9234 9.93018C26.9754 9.89288 27.0121 9.83797 27.0269 9.7756C27.0417 9.71323 27.0334 9.64759 27.0036 9.59085L26.0496 7.78108C26.0319 7.74869 26.0081 7.72011 25.9794 7.69697C25.9508 7.67382 25.9179 7.65658 25.8825 7.64622C25.8464 7.63544 25.8085 7.6324 25.7712 7.63724C25.7337 7.64212 25.6978 7.65481 25.6657 7.67452C24.5946 8.31184 23.2804 9.47774 23.352 11.7182C23.4387 14.5699 25.8024 16.7472 28.8749 16.8364H29.0289H29.2393C32.8907 16.7168 35.5276 13.9978 35.5276 10.3109C35.5276 6.92623 33.0686 3.30237 28.5194 3.30237Z" fill="#5A31F4"/>
<path d="M60.5424 5.04254H58.7121C58.6694 5.0431 58.6282 5.06048 58.5979 5.09093C58.5673 5.1214 58.55 5.16258 58.5498 5.20569V9.05793C58.55 9.10084 58.5675 9.14175 58.5981 9.17188C58.6284 9.202 58.6694 9.21892 58.7121 9.21892H60.5424C61.657 9.21892 62.4789 8.33795 62.4789 7.13072C62.4789 5.92349 61.657 5.04254 60.5424 5.04254Z" fill="#5A31F4"/>
<path d="M66.165 11.8573C66.165 12.4163 66.6355 12.7274 67.4551 12.7274C68.5697 12.7274 69.2288 12.1227 69.2288 11.0503V10.7415L67.5593 10.8285C66.6788 10.8719 66.165 11.2396 66.165 11.8573Z" fill="#5A31F4"/>
<path d="M79.7177 0.039509H55.1279C54.7247 0.0395086 54.325 0.11925 53.9526 0.274174C53.5798 0.429098 53.2412 0.65617 52.9563 0.942411C52.6709 1.22865 52.4448 1.56846 52.2906 1.94241C52.1363 2.31635 52.0572 2.7171 52.0576 3.12177V16.6254C52.0576 17.4424 52.381 18.2261 52.9568 18.8041C53.5327 19.382 54.3136 19.707 55.1279 19.7076H79.7177C80.1217 19.7088 80.522 19.6301 80.8955 19.476C81.2689 19.3219 81.6085 19.0953 81.8947 18.8095C82.1806 18.5236 82.4081 18.1839 82.5634 17.8099C82.7186 17.4359 82.7986 17.0348 82.7993 16.6297V3.12611C82.7999 2.72017 82.7209 2.31805 82.5663 1.94289C82.4117 1.56774 82.1847 1.22694 81.8984 0.940087C81.6121 0.653242 81.272 0.42601 80.8979 0.271456C80.5237 0.116902 80.1227 0.0380745 79.7177 0.039509ZM60.6356 10.735H58.7015C58.6584 10.735 58.6172 10.7521 58.5865 10.7827C58.5561 10.8133 58.5388 10.8548 58.5388 10.8981V13.6606C58.5388 13.7038 58.5217 13.7453 58.4913 13.7759C58.4607 13.8065 58.4196 13.8237 58.3763 13.8237H57.0144C56.9717 13.8232 56.9303 13.8058 56.9 13.7753C56.8696 13.7449 56.8527 13.7037 56.8519 13.6606V3.696C56.8519 3.65276 56.869 3.61126 56.8998 3.58065C56.9301 3.55006 56.9713 3.53288 57.0144 3.53288H60.6356C62.6871 3.53288 64.155 5.03159 64.155 7.135C64.155 9.23841 62.6978 10.7393 60.6468 10.7393L60.6356 10.735ZM70.8273 13.6584C70.8277 13.68 70.8238 13.7014 70.8156 13.7215C70.8075 13.7415 70.7956 13.7598 70.7806 13.7752C70.7652 13.7905 70.7473 13.8028 70.7273 13.8111C70.7077 13.8194 70.6862 13.8237 70.6646 13.8237H69.3788C69.3573 13.8237 69.3359 13.8194 69.3161 13.8111C69.2961 13.8028 69.278 13.7905 69.2631 13.7752C69.2481 13.7598 69.2359 13.7415 69.2281 13.7215C69.22 13.7014 69.2159 13.68 69.2163 13.6584V13.3604C69.2183 13.3342 69.2121 13.3081 69.1981 13.2859C69.1844 13.2636 69.1638 13.2464 69.1392 13.2369C69.115 13.2274 69.0883 13.226 69.0631 13.233C69.0377 13.2399 69.0154 13.2549 68.9995 13.2756C68.6155 13.6954 67.991 13.9999 66.9957 13.9999C65.5301 13.9999 64.5605 13.2342 64.5605 11.9117C64.5465 11.5893 64.6128 11.2683 64.7537 10.9781C64.8944 10.6879 65.1056 10.4376 65.3674 10.2499C65.8963 9.85182 66.716 9.64518 67.9324 9.59731L69.2227 9.55382V9.17531C69.2227 8.41182 68.7109 8.08773 67.8889 8.08773C67.0672 8.08773 66.5489 8.3792 66.4277 8.85558C66.4179 8.88921 66.3974 8.91864 66.3689 8.93915C66.3408 8.95967 66.3064 8.97004 66.2714 8.96867H64.9987C64.9752 8.96927 64.9519 8.96468 64.9304 8.95531C64.9093 8.9459 64.8898 8.93189 64.8743 8.91427C64.8589 8.89662 64.8473 8.87585 64.8408 8.85328C64.8341 8.83074 64.8323 8.80703 64.836 8.78379C65.0269 7.65269 65.9592 6.79348 67.9478 6.79348C70.0598 6.79348 70.8208 7.77886 70.8208 9.66038L70.8273 13.6584ZM78.8376 7.19371L75.9753 14.8526C75.3247 16.6319 74.1863 17.0887 72.9393 17.0887C72.7046 17.0944 72.47 17.0659 72.2433 17.0039C72.2079 16.9943 72.177 16.9734 72.1543 16.9443C72.1322 16.9152 72.1201 16.8796 72.1197 16.8429V15.6791C72.1197 15.6548 72.1249 15.6307 72.1351 15.6087C72.1455 15.5866 72.1603 15.5671 72.1789 15.5515C72.1978 15.5359 72.2195 15.5247 72.2429 15.5185C72.2664 15.5124 72.291 15.5115 72.3148 15.516C72.5115 15.5534 72.7111 15.5724 72.9112 15.5726C73.256 15.5899 73.5967 15.4907 73.8787 15.2907C74.1604 15.0908 74.3673 14.8017 74.4659 14.4698L74.5507 14.2022C74.5637 14.1664 74.5637 14.1271 74.5507 14.0913L71.8748 7.19591C71.8665 7.17126 71.8642 7.14499 71.8682 7.1193C71.8721 7.09359 71.8819 7.06916 71.8965 7.04798C71.9117 7.0268 71.9315 7.00946 71.9544 6.99735C71.9772 6.98526 72.0028 6.97874 72.0286 6.97837H73.3298C73.3631 6.9787 73.3954 6.989 73.4229 7.00802C73.4504 7.027 73.4715 7.0538 73.4836 7.08497L75.3009 11.9487C75.313 11.9805 75.3341 12.0078 75.362 12.0272C75.3901 12.0465 75.4232 12.0568 75.457 12.0568C75.4906 12.0568 75.5241 12.0465 75.5518 12.0272C75.5797 12.0078 75.6012 11.9805 75.6129 11.9487L77.1897 7.09803C77.2001 7.06495 77.221 7.03614 77.2491 7.01579C77.2772 6.99542 77.3108 6.9846 77.3454 6.98491H78.6793C78.7049 6.9848 78.7303 6.99081 78.7535 7.00235C78.7764 7.01392 78.7966 7.03074 78.812 7.05147C78.8274 7.0722 78.8376 7.09625 78.842 7.12173C78.8466 7.14717 78.8451 7.17332 78.8376 7.19807V7.19371Z" fill="#5A31F4"/>
</g>
</g>
<defs>
<clipPath id="clip0_577_4839">
<rect width="83" height="20" fill="white"/>
</clipPath>
</defs>
</svg>
