<svg width="25" height="8" viewBox="0 0 25 8" fill="none" xmlns="http://www.w3.org/2000/svg">
<path fill-rule="evenodd" clip-rule="evenodd" d="M6.12526 7.75825H4.00494L2.41495 1.69237C2.33949 1.41334 2.17925 1.16667 1.94354 1.0504C1.35531 0.75823 0.707118 0.525705 0 0.408431V0.174895H3.41567C3.88708 0.174895 4.24064 0.525705 4.29957 0.933129L5.12454 5.30865L7.24383 0.174895H9.30522L6.12526 7.75825ZM10.4838 7.75825H8.48129L10.1302 0.174895H12.1327L10.4838 7.75825ZM14.7234 2.27571C14.7823 1.86728 15.1359 1.63374 15.5483 1.63374C16.1965 1.57511 16.9026 1.69238 17.4919 1.98354L17.8454 0.35081C17.2562 0.117274 16.608 0 16.0198 0C14.0762 0 12.662 1.05041 12.662 2.50824C12.662 3.61728 13.6637 4.19961 14.3708 4.55042C15.1359 4.90021 15.4305 5.13375 15.3716 5.48355C15.3716 6.00825 14.7823 6.24178 14.1941 6.24178C13.4869 6.24178 12.7798 6.06688 12.1327 5.77471L11.7791 7.40845C12.4862 7.69962 13.2512 7.81689 13.9584 7.81689C16.1376 7.87451 17.4919 6.82512 17.4919 5.25001C17.4919 3.26647 14.7234 3.15021 14.7234 2.27571ZM24.5 7.75825L22.91 0.174895H21.2022C20.8486 0.174895 20.4951 0.408431 20.3772 0.75823L17.4329 7.75825H19.4943L19.9058 6.65021H22.4386L22.6743 7.75825H24.5ZM21.4968 2.21708L22.085 5.07512H20.4361L21.4968 2.21708Z" fill="#172B85"/>
</svg>
