<svg width="24" height="24" viewBox="0 0 24 24" fill="none" xmlns="http://www.w3.org/2000/svg">
<g clip-path="url(#clip0_496_3932)">
<path d="M18.9488 11.7956C17.9497 11.7956 16.9731 12.0919 16.1424 12.6469C15.3118 13.202 14.6643 13.9908 14.282 14.9138C13.8997 15.8368 13.7997 16.8525 13.9946 17.8323C14.1895 18.8122 14.6705 19.7122 15.377 20.4186C16.0834 21.1251 16.9835 21.6062 17.9633 21.8011C18.9431 21.996 19.9588 21.8959 20.8818 21.5136C21.8048 21.1313 22.5937 20.4839 23.1487 19.6532C23.7038 18.8225 24 17.8459 24 16.8469C24 15.5072 23.4678 14.2224 22.5205 13.2751C21.5732 12.3278 20.2884 11.7956 18.9488 11.7956ZM18.9488 20.2083C18.2839 20.2084 17.634 20.0113 17.0811 19.642C16.5283 19.2727 16.0974 18.7478 15.8429 18.1336C15.5884 17.5193 15.5218 16.8435 15.6514 16.1914C15.7811 15.5393 16.1012 14.9403 16.5712 14.4702C17.0413 14 17.6403 13.6798 18.2923 13.5501C18.9444 13.4204 19.6203 13.4869 20.2345 13.7413C20.8488 13.9957 21.3738 14.4265 21.7432 14.9793C22.1125 15.5321 22.3097 16.182 22.3097 16.8469C22.3087 17.738 21.9543 18.5923 21.3242 19.2225C20.6942 19.8526 19.8399 20.2072 18.9488 20.2083ZM5.05125 11.7956C4.05221 11.7956 3.0756 12.0919 2.24493 12.6469C1.41425 13.202 0.766823 13.9908 0.384506 14.9138C0.00218864 15.8368 -0.097843 16.8525 0.0970606 17.8323C0.291964 18.8122 0.773049 19.7122 1.47948 20.4186C2.18591 21.1251 3.08596 21.6062 4.0658 21.8011C5.04565 21.996 6.06129 21.8959 6.98428 21.5136C7.90728 21.1313 8.69617 20.4839 9.25121 19.6532C9.80625 18.8225 10.1025 17.8459 10.1025 16.8469C10.1025 15.5072 9.57032 14.2224 8.62302 13.2751C7.67573 12.3278 6.39093 11.7956 5.05125 11.7956ZM5.05125 20.2083C4.38643 20.2083 3.73654 20.0111 3.18375 19.6418C2.63097 19.2724 2.20013 18.7474 1.94572 18.1332C1.6913 17.519 1.62473 16.8431 1.75443 16.1911C1.88414 15.539 2.20428 14.9401 2.67438 14.47C3.14448 13.9999 3.74343 13.6798 4.39547 13.5501C5.04752 13.4204 5.72339 13.4869 6.33761 13.7413C6.95182 13.9958 7.4768 14.4266 7.84616 14.9794C8.21552 15.5322 8.41266 16.1821 8.41266 16.8469C8.41179 17.7381 8.05736 18.5926 7.42717 19.2228C6.79697 19.853 5.94249 20.2074 5.05125 20.2083Z" fill="white"/>
<path d="M17.662 9.97687C18.6867 9.98624 18.7298 8.62593 17.7014 8.57484C16.7795 8.57296 15.8576 8.57687 14.9358 8.58656C14.7586 8.58656 14.6587 8.52937 14.5645 8.37984C13.9603 7.4189 13.3584 6.45796 12.7298 5.51109C12.1786 4.6814 11.1215 4.59327 10.4212 5.29312C9.21122 6.50218 8.0031 7.71171 6.79685 8.92171C5.99997 9.71859 6.14857 10.8398 7.12779 11.3906C8.29497 12.0469 9.4631 12.7003 10.6383 13.3416C10.8258 13.4442 10.8965 13.5525 10.8947 13.7662C10.8839 15.0089 10.8862 16.2506 10.8886 17.4951C10.8872 17.6361 10.9156 17.7758 10.9718 17.905C11.0281 18.0343 11.1109 18.1503 11.215 18.2454C11.3191 18.3405 11.442 18.4125 11.5758 18.4569C11.7096 18.5013 11.8513 18.517 11.9915 18.503C12.5597 18.4561 12.9347 18.0286 12.937 17.4136C12.942 15.7336 12.944 14.0536 12.9431 12.3736C12.975 11.5636 12.2259 11.28 11.6236 10.958C11.0793 10.6664 10.5337 10.3781 10.0378 10.1142L12.3187 7.71702C12.7317 8.36062 13.109 8.94796 13.4854 9.53577C13.6654 9.81702 13.9106 9.97968 14.2547 9.97921C15.3895 9.97687 16.5258 9.98249 17.662 9.97687ZM14.1403 5.66437C14.3737 5.66703 14.6052 5.62344 14.8217 5.53612C15.0381 5.4488 15.2351 5.31947 15.4013 5.1556C15.5674 4.99173 15.6995 4.79657 15.7899 4.58139C15.8802 4.3662 15.927 4.13525 15.9276 3.90187C15.9375 2.92359 15.135 2.10187 14.174 2.10187C13.1756 2.10187 12.3642 2.90202 12.3656 3.88312C12.3656 4.3544 12.5524 4.80648 12.885 5.14034C13.2176 5.4742 13.669 5.66263 14.1403 5.66437Z" fill="white"/>
</g>
<defs>
<clipPath id="clip0_496_3932">
<rect width="24" height="24" fill="white"/>
</clipPath>
</defs>
</svg>
