<svg width="36" height="36" viewBox="0 0 36 36" fill="none" xmlns="http://www.w3.org/2000/svg">
<path d="M21.3987 10.3691H28.707L31.1431 12.8052V15.9902C31.1431 19.9519 28.7312 23.5144 25.0529 24.9857C21.3746 23.5144 18.9626 19.9519 18.9626 15.9902V12.8052L21.3987 10.3691Z" stroke="#14C9C9" stroke-width="2" stroke-miterlimit="10" stroke-linecap="round" stroke-linejoin="round"/>
<path d="M27.6365 15.5981L24.1914 19.0432L22.4688 17.3206" stroke="#14C9C9" stroke-width="2" stroke-miterlimit="10" stroke-linecap="round" stroke-linejoin="round"/>
<path d="M25.0527 24.9858V30.5279C25.0527 31.5369 24.2347 32.355 23.2256 32.355H9.82707C8.81804 32.355 8 31.5369 8 30.5279V4.82706C8 3.81803 8.81804 2.99999 9.82707 2.99999H23.2256C24.2347 2.99999 25.0527 3.81803 25.0527 4.82706V10.3692" stroke="#14C9C9" stroke-width="2" stroke-miterlimit="10" stroke-linecap="round" stroke-linejoin="round"/>
<path d="M18.9626 6.65405H14.0904L12.8723 2.9999H20.1806L18.9626 6.65405Z" stroke="#14C9C9" stroke-width="2" stroke-miterlimit="10" stroke-linecap="round" stroke-linejoin="round"/>
<path d="M18.3536 28.7008H14.6995" stroke="#14C9C9" stroke-width="2" stroke-miterlimit="10" stroke-linecap="round" stroke-linejoin="round"/>
</svg>
