<svg width="36" height="36" viewBox="0 0 36 36" fill="none" xmlns="http://www.w3.org/2000/svg">
<path d="M26.9166 32.6609C26.8135 32.7636 26.6572 32.823 26.5092 32.8236C26.2986 32.8244 26.1341 32.7119 26.135 32.5223C26.1352 32.4767 26.1466 32.4262 26.1719 32.3711L27.7914 27.8824H25.3704C24.438 27.8824 23.849 26.8936 24.3027 26.0847L27.0796 21.1334H31.3571L29.1518 24.6887H31.9428C32.7008 24.6887 33.0996 25.5814 32.6057 26.1524L26.9166 32.6609Z" fill="#14C9C9"/>
<path d="M16.9155 3.17651H21.7362M19.2656 6.85229V3.17651M3.17651 23.7247H9.7447M3.17651 18.904H11.5525M3.17651 28.5454H7.93694M28.3646 7.15358L27.3402 8.45583M31.6186 17.8194C30.9159 11.6472 25.5956 6.85229 19.2354 6.85229C14.1412 6.85229 9.76549 9.92837 7.86433 14.3244M12.6672 29.8108C14.5583 30.9812 16.8481 31.6186 19.2354 31.6186C20.62 31.6186 21.9447 31.4248 23.1824 31.016M21.1388 20.8251C22.0225 19.8433 24.0862 13.3 24.0862 13.3C24.0862 13.3 18.4744 16.6367 17.5907 17.6184C16.707 18.6002 16.785 20.1139 17.7647 20.9994C18.7445 21.8849 20.2551 21.8068 21.1388 20.8251Z" stroke="#14C9C9" stroke-width="2" stroke-miterlimit="10" stroke-linecap="round" stroke-linejoin="round"/>
</svg>
