<svg width="36" height="36" viewBox="0 0 36 36" fill="none" xmlns="http://www.w3.org/2000/svg">
<path d="M27.8797 28.5933H23.1137V27.4671C24.954 27.3225 26.4076 25.7798 26.4076 23.9029V10.8368C26.4076 8.86485 24.8033 7.26051 22.8313 7.26051H21.4888V5.18448C21.4888 3.8145 20.3743 2.69995 19.0043 2.69995H16.9956C15.6256 2.69995 14.511 3.8145 14.511 5.18448V7.26051H13.1686C11.1966 7.26051 9.59229 8.86485 9.59229 10.8368V23.903C9.59229 25.7799 11.0458 27.3225 12.8861 27.4671V28.5933H8.12012C7.61193 28.5933 7.19995 29.0053 7.19995 29.5135V32.9782C7.19995 33.4864 7.61193 33.8984 8.12012 33.8984H27.8796C28.3878 33.8984 28.7998 33.4864 28.7998 32.9782V29.5135C28.7998 29.0052 28.3878 28.5933 27.8797 28.5933ZM16.9956 4.54029H19.0043C19.3596 4.54029 19.6486 4.8293 19.6486 5.18454V7.26057H16.3514V5.18454C16.3513 4.82924 16.6403 4.54029 16.9956 4.54029ZM11.4326 23.903V10.8368C11.4326 9.87958 12.2112 9.10085 13.1685 9.10085H22.8313C23.7885 9.10085 24.5672 9.87958 24.5672 10.8368V23.903C24.5672 24.8602 23.7886 25.6389 22.8313 25.6389H13.1686C12.2114 25.6389 11.4326 24.8602 11.4326 23.903ZM21.2734 27.4793V28.5933H14.7264V27.4793H21.2734ZM26.9595 32.0579H9.04029V30.4335H26.9595V32.0579Z" fill="#14C9C9"/>
<path d="M17.6783 19.1517L16.1411 16.7978L17.359 15.2681C17.4183 15.1865 17.4332 15.1048 17.4332 15.0454C17.4332 14.7558 17.0471 14.4514 16.75 14.4514C16.6312 14.4514 16.5273 14.4959 16.4456 14.6147L15.057 16.5825V14.8004C15.057 14.5553 14.7674 14.4514 14.4779 14.4514C14.1883 14.4514 13.8987 14.5553 13.8987 14.8004L13.8987 19.523C13.8987 19.7607 14.1884 19.8795 14.4779 19.8795C14.7675 19.8795 15.057 19.7607 15.057 19.523V18.179L15.3689 17.7781L16.6387 19.7087C16.7352 19.8646 16.8837 19.924 17.0397 19.924C17.3738 19.924 17.7376 19.6345 17.7376 19.3449C17.7376 19.278 17.7153 19.2111 17.6783 19.1517ZM21.7518 17.028H20.5043C20.2816 17.028 20.1554 17.2582 20.1554 17.4735C20.1554 17.7037 20.2816 17.9191 20.5043 17.9191H20.9424V18.1716C20.9424 18.6764 20.6899 18.9141 20.2741 18.9141C19.8583 18.9141 19.6133 18.6765 19.6133 18.1716V16.2038C19.6133 15.6989 19.8584 15.4613 20.2816 15.4613C20.9128 15.4613 20.9351 15.8622 20.9425 16.1295C20.9499 16.3967 21.2098 16.4785 21.5216 16.4785C21.9152 16.4785 22.1008 16.3745 22.1008 15.929C22.1008 14.9859 21.2989 14.4513 20.237 14.4513C19.2642 14.4513 18.4549 14.9265 18.4549 16.2037V18.1715C18.4549 19.4487 19.2494 19.9239 20.2741 19.9239C21.2988 19.9239 22.1007 19.4487 22.1007 18.1715V17.3919C22.1008 17.1988 21.9747 17.028 21.7518 17.028Z" fill="#14C9C9"/>
</svg>
