<svg width="36" height="36" viewBox="0 0 36 36" fill="none" xmlns="http://www.w3.org/2000/svg">
<path d="M18.3821 0L4.5 6.30668V17.7325C4.5 20.0712 5.22401 22.4838 6.6517 24.9036C7.76433 26.7899 9.3079 28.6875 11.239 30.5442C14.4959 33.6755 17.7094 35.6001 17.8445 35.6806L18.3821 36L18.9195 35.6803C19.055 35.6001 22.2682 33.6755 25.5251 30.5442C27.4565 28.6875 28.9998 26.7899 30.1127 24.9036C31.5404 22.4838 32.2641 20.0712 32.2641 17.7325V6.30668L18.3821 0ZM30.1547 17.7325C30.1547 25.3647 20.7546 31.9727 18.3821 33.5182C16.0095 31.9727 6.60938 25.365 6.60938 17.7325V7.67285L18.3821 2.32446L30.1547 7.67257V17.7325Z" fill="#14C9C9"/>
<path d="M12.7559 20.8748H17.3273V28.8525L24.008 14.3865H19.4367V6.40894L12.7559 20.8748ZM20.705 16.5044L19.4366 19.2508V18.7569H16.0589L17.3273 16.0106V16.5044H20.705Z" fill="#14C9C9"/>
</svg>
