<svg width="36" height="36" viewBox="0 0 36 36" fill="none" xmlns="http://www.w3.org/2000/svg">
<path d="M20.6876 4.49534C20.6876 3.56845 19.9736 2.79792 19.0506 2.72752C18.3518 2.6893 17.6481 2.6893 16.9544 2.7371C16.0314 2.80719 15.3225 3.57346 15.3225 4.49534C15.3123 4.49553 15.3123 4.49565 15.3123 4.49565V4.4954C14.9604 3.63898 14.0067 3.20029 13.1244 3.4889C12.4614 3.72075 11.8188 3.98866 11.1915 4.29986C10.3705 4.71627 10.0032 5.69604 10.3603 6.54776C10.35 6.55151 10.35 6.55163 10.35 6.55163V6.55138C9.69213 5.89583 8.64665 5.85577 7.94285 6.45952C7.42265 6.9262 6.92283 7.42113 6.46383 7.94825C5.86713 8.64774 5.90287 9.69176 6.55563 10.3436L6.55055 10.3504V10.3503C5.69375 9.99541 4.7094 10.3601 4.29122 11.187C3.9857 11.8164 3.72 12.4643 3.49569 13.1269C3.21007 14.0029 3.64862 14.9523 4.50035 15.3051L4.49527 15.3138C3.56704 15.3136 2.79696 16.0276 2.72561 16.9517C2.68986 17.6499 2.68986 18.3499 2.73576 19.0474C2.80719 19.9667 3.57219 20.6769 4.49527 20.6769V20.6863C3.63847 21.0408 3.19984 21.9953 3.48547 22.8761C3.72005 23.5358 3.98522 24.1825 4.29637 24.8086C4.71455 25.631 5.69375 25.9939 6.54547 25.6411L6.55055 25.6495V25.6497C5.89265 26.305 5.85691 27.3547 6.45875 28.058C6.92418 28.58 7.42153 29.0726 7.94793 29.533C8.64665 30.1335 9.69207 30.0939 10.3449 29.4419L10.35 29.4483V29.4486C9.99299 30.3049 10.3602 31.2899 11.1864 31.7087C11.8188 32.0113 12.4614 32.2791 13.1244 32.5017C14.0016 32.7888 14.9502 32.3526 15.3072 31.5009C15.3123 31.5043 15.3123 31.5041 15.3123 31.5041V31.5045C15.3123 32.4313 16.0263 33.2019 16.9493 33.2723C17.6481 33.3106 18.3518 33.3106 19.0455 33.2627C19.9685 33.1927 20.6774 32.4264 20.6774 31.5045C20.6876 31.5043 20.6876 31.5041 20.6876 31.5041V31.5045C21.0395 32.3609 21.9932 32.7996 22.8755 32.5109C23.5385 32.279 24.1811 32.0112 24.8084 31.7C25.6294 31.2836 25.9967 30.3038 25.6396 29.4521C25.6499 29.4483 25.6499 29.4482 25.6499 29.4482V29.4484C26.3078 30.104 27.3533 30.144 28.0571 29.5403C28.5773 29.0736 29.0771 28.5786 29.5361 28.0515C30.1328 27.3521 30.097 26.308 29.4443 25.6562C29.4494 25.6494 29.4494 25.6493 29.4494 25.6493V25.6494C30.3062 26.0043 31.2905 25.6396 31.7087 24.8127C32.0142 24.1834 32.2799 23.5355 32.5042 22.8728C32.7898 21.9968 32.3513 21.0474 31.4996 20.6946L31.5046 20.6859C32.4329 20.6861 33.2029 19.9722 33.2743 19.0479C33.31 18.3497 33.31 17.6497 33.2641 16.9523C33.1927 16.033 32.4277 15.3229 31.5046 15.3229V15.3135C32.3614 14.959 32.8001 14.0045 32.5144 13.1237C32.2799 12.4639 32.0147 11.8173 31.7035 11.1912C31.2854 10.3686 30.3062 10.0058 29.4544 10.3587L29.4494 10.3502V10.35C30.1073 9.69474 30.143 8.64501 29.5412 7.94172C29.0757 7.41972 28.5784 6.9271 28.052 6.46669C27.3532 5.86618 26.3078 5.90586 25.655 6.55779L25.6499 6.55144V6.55113C26.0069 5.69483 25.6397 4.70979 24.8135 4.29104C24.1811 3.98847 23.5385 3.72062 22.8755 3.49791C21.9983 3.21083 21.0497 3.64711 20.6927 4.49883L20.6876 4.49553V4.49534Z" stroke="#14C9C9" stroke-width="1.7" stroke-miterlimit="10" stroke-linecap="round" stroke-linejoin="round"/>
<path d="M17.9998 27.1792C23.0697 27.1792 27.1797 23.0695 27.1797 17.9999C27.1797 12.9304 23.0697 8.82068 17.9998 8.82068C12.9298 8.82068 8.81982 12.9304 8.81982 17.9999C8.81982 23.0695 12.9298 27.1792 17.9998 27.1792Z" stroke="#14C9C9" stroke-width="1.7" stroke-miterlimit="10" stroke-linecap="round" stroke-linejoin="round"/>
<path d="M17.9999 22.0796C20.2532 22.0796 22.0799 20.2531 22.0799 17.9999C22.0799 15.7468 20.2532 13.9203 17.9999 13.9203C15.7466 13.9203 13.9199 15.7468 13.9199 17.9999C13.9199 20.2531 15.7466 22.0796 17.9999 22.0796Z" stroke="#14C9C9" stroke-width="1.7" stroke-miterlimit="10" stroke-linecap="round" stroke-linejoin="round"/>
<path d="M8.81982 18H13.9198M22.0797 18H27.1797M13.4098 10.0505L15.9598 14.4669M20.0398 21.533L22.5897 25.9495M22.5897 10.0505L20.0398 14.4669M15.9598 21.533L13.4098 25.9495" stroke="#14C9C9" stroke-width="1.7" stroke-miterlimit="10" stroke-linecap="round" stroke-linejoin="round"/>
</svg>
