<svg width="36" height="36" viewBox="0 0 36 36" fill="none" xmlns="http://www.w3.org/2000/svg">
<path d="M17.8201 4.5C13.6675 4.5 9.90187 6.18408 7.16659 8.90352C7.15471 8.91396 7.13959 8.91756 7.12843 8.92872C7.11727 8.93988 7.11367 8.955 7.10323 8.96688C4.38415 11.7018 2.70007 15.4674 2.70007 19.62C2.69893 23.2699 4.01915 26.7968 6.41671 29.5488C6.55626 29.7095 6.75356 29.8087 6.96578 29.8249C7.17801 29.8411 7.38806 29.7729 7.55035 29.6352L10.7101 26.9582C10.7924 26.8887 10.86 26.8034 10.9089 26.7074C10.9578 26.6113 10.987 26.5065 10.9948 26.3991C11.0027 26.2916 10.989 26.1836 10.9546 26.0815C10.9201 25.9794 10.8656 25.8852 10.7943 25.8044C9.28856 24.0961 8.45826 21.8968 8.45935 19.6196C8.45935 14.458 12.658 10.2593 17.8197 10.2593C19.9725 10.2609 22.0593 11.0027 23.7302 12.3602C24.5571 13.0352 25.5842 11.7821 24.7533 11.1053C23.0127 9.6858 20.8635 8.84088 18.6297 8.67456V6.16068C25.6965 6.58332 31.3201 12.4495 31.3201 19.62C31.3208 22.6004 30.3347 25.4973 28.5157 27.8582L26.5868 26.2318C28.0243 24.3274 28.8015 22.0061 28.8004 19.62C28.8004 18.5548 28.6474 17.5 28.3458 16.4844C28.0369 15.4501 26.4907 15.9286 26.7931 16.9463C27.0501 17.8142 27.1804 18.7148 27.1801 19.62C27.1801 21.8981 26.3521 24.0941 24.848 25.8016C24.7766 25.8824 24.7221 25.9768 24.6877 26.079C24.6533 26.1813 24.6396 26.2894 24.6476 26.397C24.6555 26.5045 24.6849 26.6095 24.734 26.7055C24.783 26.8016 24.8508 26.8869 24.9333 26.9564L28.0984 29.6258C28.2608 29.763 28.4707 29.8307 28.6826 29.8143C28.8946 29.798 29.0916 29.6988 29.231 29.5384C31.6235 26.788 32.9408 23.2653 32.9401 19.62C32.9401 11.2828 26.1573 4.5 17.8201 4.5ZM10.6597 11.3134L8.87875 9.5328C11.073 7.58556 13.8986 6.3468 17.0101 6.16068V8.68032C14.6651 8.85167 12.4379 9.7751 10.6597 11.3134ZM9.05767 26.2361L7.13167 27.8676C5.47819 25.726 4.51591 23.1329 4.35355 20.43H6.87283C7.02704 22.5353 7.78568 24.5514 9.05767 26.2361ZM6.88075 18.81H4.36111C4.54723 15.6982 5.78599 12.8725 7.73323 10.6783L9.51415 12.4585C7.97548 14.237 7.0519 16.4646 6.88075 18.81Z" fill="#14C9C9"/>
<path d="M19.6532 23.7427C20.4157 22.9791 26.7251 14.7059 27.4422 13.7653C27.9966 13.0373 27.097 12.0963 26.3485 12.601C24.722 13.6843 16.5684 19.1296 15.8038 19.8943C14.7428 20.9552 14.7428 22.6817 15.8038 23.7427C16.8625 24.8014 18.5898 24.8057 19.6532 23.7427ZM16.9489 21.0394C17.3032 20.6902 20.1846 18.7055 23.1589 16.6931C20.9694 19.5386 18.8612 22.2429 18.5077 22.5971C17.477 23.6282 15.9179 22.0705 16.9489 21.0394ZM15.0326 28.1249H20.6076C21.6797 28.1249 21.6797 26.5049 20.6076 26.5049H15.0326C13.9606 26.5049 13.9606 28.1249 15.0326 28.1249ZM24.6378 29.5739H11.0028C9.93071 29.5739 9.93071 31.1939 11.0028 31.1939H24.6378C25.7095 31.1939 25.7095 29.5739 24.6378 29.5739Z" fill="#14C9C9"/>
</svg>
