<svg width="186" height="40" viewBox="0 0 186 40" fill="none" xmlns="http://www.w3.org/2000/svg">
<g clip-path="url(#clip0_155_1258)">
<path d="M45.855 1.80949L23.5094 14.623L30.1141 17.9184L19.1596 28.4663L46.8733 17.0945L38.4937 13.5785L45.855 1.80949Z" fill="#14C9C9"/>
<path d="M44.3565 3.56013L31.0743 14.8878L37.068 17.58L21.6327 26.5392L30.1141 17.9184L23.5094 14.623L44.3565 3.56013Z" fill="#07828B"/>
<path d="M22.5638 15.6822L29.2122 18.1684L16.4682 28.5987C16.1482 28.8636 16.0609 29.3196 16.2645 29.6727C16.41 29.9375 16.701 30.0993 16.9919 30.0993C17.0938 30.0993 17.1956 30.0846 17.2974 30.0405L47.7171 18.1979C48.0372 18.0802 48.2408 17.7712 48.2554 17.4182C48.2554 17.0798 48.0517 16.7562 47.7316 16.6238L39.3375 13.1372L48.0808 1.35344C48.3136 1.02979 48.299 0.588452 48.0372 0.294227C47.7753 7.18981e-07 47.3389 -0.0735557 47.0043 0.117691L22.4329 14.1523C22.1564 14.3141 21.9819 14.623 22.011 14.9467C22.0401 15.285 22.2583 15.5645 22.5638 15.6822ZM44.3565 3.56013L37.359 13.0048C37.199 13.2107 37.1553 13.4903 37.2281 13.7403C37.3008 13.9904 37.4754 14.1964 37.7227 14.2994L45.1712 17.3887L21.6473 26.5539L31.4235 18.5509C31.6562 18.3597 31.7726 18.0508 31.729 17.7565C31.6853 17.4623 31.4816 17.2122 31.1907 17.1092L24.8478 14.7407L44.3565 3.56013Z" fill="#23272F"/>
<path d="M16.9919 40C22.8547 40 27.6119 35.1747 27.6119 29.2608C27.6119 28.79 27.2337 28.4222 26.7827 28.4222C26.3171 28.4222 25.9534 28.8047 25.9534 29.2608C25.9534 34.2626 21.9382 38.3229 16.9919 38.3229C12.0457 38.3229 8.03044 34.2626 8.03044 29.2608C8.03044 24.2589 12.0457 20.1986 16.9919 20.1986C18.4904 20.1986 19.9597 20.5811 21.2545 21.2872C21.6618 21.5079 22.171 21.3608 22.3892 20.9489C22.6074 20.537 22.462 20.0221 22.0546 19.8014C20.5125 18.9481 18.7522 18.5068 16.9919 18.5068C11.1291 18.5068 6.37198 23.3321 6.37198 29.246C6.37198 30.0993 6.47382 30.9378 6.66294 31.747H0.843779C0.378247 31.747 0.0145493 32.1295 0.0145493 32.5855C0.0145493 33.0563 0.392795 33.4241 0.843779 33.4241H7.21576C7.46307 33.9978 7.75403 34.5568 8.08863 35.0717H2.95322C2.48769 35.0717 2.12399 35.4542 2.12399 35.9103C2.12399 36.381 2.50224 36.7488 2.95322 36.7488H9.39794C11.3328 38.7643 14.0242 40 16.9919 40Z" fill="#23272F"/>
<path d="M54.38 18.5068C48.5172 18.5068 43.7601 23.3321 43.7601 29.246C43.7601 30.0993 43.8619 30.9378 44.051 31.747H38.3628C37.8973 31.747 37.5336 32.1295 37.5336 32.5855C37.5336 33.0563 37.9118 33.4241 38.3628 33.4241H44.5893C44.8366 33.9978 45.1276 34.5568 45.4622 35.0717H40.4868C40.0213 35.0717 39.6576 35.4542 39.6576 35.9103C39.6576 36.381 40.0358 36.7488 40.4868 36.7488H46.8006C48.7355 38.7348 51.4123 39.9706 54.38 39.9706C60.2428 39.9706 65 35.1453 65 29.2313C65 23.3174 60.2283 18.5068 54.38 18.5068ZM54.38 38.3082C49.4337 38.3082 45.4185 34.2479 45.4185 29.246C45.4185 24.2442 49.4337 20.1839 54.38 20.1839C59.3263 20.1839 63.3415 24.2442 63.3415 29.246C63.3415 34.2479 59.3118 38.3082 54.38 38.3082Z" fill="#23272F"/>
<path d="M54.38 26.8628C53.0853 26.8628 52.0233 27.9367 52.0233 29.246C52.0233 30.5554 53.0853 31.6293 54.38 31.6293C55.6748 31.6293 56.7368 30.5554 56.7368 29.246C56.7368 27.9367 55.6748 26.8628 54.38 26.8628Z" fill="#23272F"/>
</g>
<path d="M77 31.7335V8.27984H84.8986V11.3581H80.5878V18.181H84.6844V21.1927H80.5878V28.6552H85.0592V31.7335H77Z" fill="#07828B"/>
<path d="M87.7099 31.7335V8.27984H91.2977V28.6952H95.836V31.7335H87.7099Z" fill="#07828B"/>
<path d="M97.7772 31.7335V8.27984H105.676V11.3581H101.365V18.181H105.462V21.1927H101.365V28.6552H105.836V31.7335H97.7772Z" fill="#07828B"/>
<path d="M113.32 32C112.178 32 111.227 31.7379 110.468 31.2138C109.71 30.6896 109.139 29.9256 108.755 28.9217C108.38 27.9089 108.193 26.6874 108.193 25.2571V15.0361C108.193 13.9611 108.282 12.9928 108.46 12.131C108.639 11.2693 108.929 10.5319 109.331 9.91893C109.732 9.30594 110.268 8.83509 110.937 8.50639C111.606 8.17768 112.432 8.01333 113.414 8.01333C114.306 8.01333 115.065 8.15991 115.69 8.45308C116.323 8.73737 116.836 9.15047 117.229 9.69239C117.631 10.2343 117.921 10.8917 118.099 11.6646C118.287 12.4287 118.38 13.2904 118.38 14.2499V17.4747H114.913V14.4764C114.913 13.3215 114.815 12.4731 114.619 11.9311C114.422 11.3803 114.029 11.1049 113.44 11.1049C112.789 11.1049 112.352 11.4026 112.128 11.9978C111.914 12.5841 111.807 13.4059 111.807 14.4631V25.417C111.807 26.2343 111.852 26.9051 111.941 27.4292C112.039 27.9445 112.2 28.3265 112.423 28.5752C112.646 28.8151 112.958 28.935 113.36 28.935C113.967 28.935 114.378 28.6507 114.592 28.0822C114.806 27.5136 114.913 26.6119 114.913 25.377V22.0189H118.434V25.337C118.434 26.8207 118.26 28.06 117.912 29.055C117.564 30.0411 117.01 30.7785 116.252 31.2671C115.502 31.7557 114.525 32 113.32 32Z" fill="#07828B"/>
<path d="M122.704 31.7335V11.3715H119.947V8.27984H128.93V11.3715H126.279V31.7335H122.704Z" fill="#07828B"/>
<path d="M135.904 32C134.682 32 133.682 31.7424 132.906 31.2271C132.138 30.7118 131.571 29.9478 131.205 28.935C130.84 27.9223 130.657 26.6696 130.657 25.1771V14.4497C130.657 13.0994 130.835 11.9445 131.192 10.985C131.549 10.0255 132.116 9.28817 132.892 8.7729C133.669 8.25763 134.686 8 135.945 8C136.891 8 137.689 8.14659 138.341 8.43976C138.992 8.73293 139.519 9.15936 139.921 9.71904C140.322 10.2699 140.612 10.945 140.791 11.7446C140.978 12.5353 141.072 13.437 141.072 14.4497V25.1771C141.072 26.6696 140.893 27.9223 140.536 28.935C140.188 29.9478 139.635 30.7118 138.876 31.2271C138.118 31.7424 137.127 32 135.904 32ZM135.904 28.9084C136.351 28.9084 136.685 28.7751 136.909 28.5086C137.132 28.2421 137.279 27.8379 137.35 27.2959C137.431 26.7451 137.471 26.0522 137.471 25.2171V14.2898C137.471 13.2682 137.373 12.482 137.176 11.9311C136.989 11.3715 136.578 11.0916 135.945 11.0916C135.293 11.0916 134.851 11.3626 134.619 11.9045C134.387 12.4375 134.271 13.2282 134.271 14.2765V25.2171C134.271 26.07 134.307 26.7718 134.378 27.3226C134.459 27.8645 134.615 28.2643 134.847 28.5219C135.088 28.7796 135.44 28.9084 135.904 28.9084Z" fill="#07828B"/>
<path d="M144.338 31.7335V8.27984H149.439C150.626 8.27984 151.572 8.46197 152.277 8.82621C152.982 9.18157 153.491 9.75014 153.803 10.5319C154.125 11.3048 154.285 12.322 154.285 13.5836V14.3032C154.285 15.5203 154.125 16.5242 153.803 17.3148C153.491 18.0966 152.964 18.643 152.224 18.9539C152.839 19.1582 153.33 19.5269 153.696 20.06C154.071 20.5841 154.339 21.2282 154.5 21.9922C154.66 22.7474 154.74 23.578 154.74 24.4842V25.0838C154.732 26.6474 154.549 27.9223 154.192 28.9084C153.835 29.8856 153.277 30.6008 152.518 31.0539C151.76 31.5069 150.769 31.7335 149.546 31.7335H144.338ZM147.926 28.9617H149.198C149.671 28.9617 150.046 28.8595 150.323 28.6552C150.608 28.442 150.814 28.0911 150.938 27.6024C151.063 27.1138 151.126 26.4475 151.126 25.6036V23.7113C151.126 22.5741 151.014 21.7479 150.791 21.2326C150.577 20.7085 150.126 20.4464 149.439 20.4464H147.926V28.9617ZM147.926 17.7679H149.252C149.564 17.7679 149.818 17.7235 150.015 17.6346C150.211 17.5458 150.363 17.3948 150.47 17.1816C150.577 16.9595 150.648 16.653 150.684 16.2621C150.729 15.8712 150.751 15.3737 150.751 14.7696V13.357C150.751 12.7263 150.693 12.2465 150.577 11.9178C150.461 11.5891 150.282 11.367 150.042 11.2515C149.809 11.136 149.506 11.0783 149.131 11.0783H147.926V17.7679Z" fill="#07828B"/>
<path d="M157.592 31.7335V8.27984H161.18V31.7335H157.592Z" fill="#07828B"/>
<path d="M164.794 31.7335V8.27984H168.382V19.0738L171.97 8.27984H175.678L171.769 19.8468L175.986 31.7335H172.198L168.409 20.7796V31.7335H164.794Z" fill="#07828B"/>
<path d="M177.941 31.7335V8.27984H185.839V11.3581H181.529V18.181H185.625V21.1927H181.529V28.6552H186V31.7335H177.941Z" fill="#07828B"/>
<defs>
<clipPath id="clip0_155_1258">
<rect width="65" height="40" fill="white"/>
</clipPath>
</defs>
</svg>
