<svg width="66" height="17" viewBox="0 0 66 17" fill="none" xmlns="http://www.w3.org/2000/svg">
<g clip-path="url(#clip0_511_4290)">
<path d="M21.1042 3.39966C20.9683 3.39966 20.853 3.49546 20.8317 3.62592L19.2594 13.3135C19.2537 13.3489 19.256 13.3851 19.266 13.4196C19.2761 13.454 19.2937 13.486 19.3176 13.5132C19.3416 13.5404 19.3713 13.5623 19.4048 13.5773C19.4383 13.5923 19.4747 13.6 19.5116 13.6H21.3762C21.5119 13.6 21.6274 13.504 21.6487 13.3738L22.1106 10.5289C22.1316 10.3986 22.2472 10.3027 22.383 10.3027H24.0783C26.059 10.3027 27.7405 8.8985 28.0476 6.99581C28.3573 5.07703 26.8144 3.40382 24.6276 3.39966H21.1042ZM22.9168 5.56231H24.2732C25.3898 5.56231 25.7535 6.20247 25.6385 6.91042C25.5235 7.61988 24.9588 8.14246 23.8785 8.14246H22.498L22.9168 5.56231ZM31.84 6.22084C31.3692 6.22254 30.8274 6.31627 30.2192 6.56241C28.824 7.1274 28.154 8.29507 27.8695 9.14635C27.8695 9.14635 26.9639 11.7435 29.01 13.1704C29.01 13.1704 30.9075 14.5441 33.0436 13.0858L33.0068 13.3135C33.0011 13.3489 33.0033 13.385 33.0133 13.4195C33.0234 13.4539 33.0409 13.4858 33.0648 13.5131C33.0888 13.5403 33.1185 13.5621 33.1519 13.5771C33.1853 13.5922 33.2217 13.6 33.2586 13.6H35.0287C35.1645 13.6 35.2799 13.504 35.3011 13.3738L36.3778 6.73963C36.3836 6.70425 36.3814 6.66807 36.3714 6.63358C36.3614 6.5991 36.3439 6.56713 36.3199 6.53987C36.296 6.51261 36.2663 6.49071 36.2328 6.47568C36.1994 6.46064 36.1629 6.45283 36.1261 6.45278H34.3559C34.2201 6.45278 34.1045 6.54878 34.0835 6.67904L34.0256 7.03614C34.0256 7.03614 33.2527 6.21573 31.84 6.22084ZM31.8979 8.31627C32.1012 8.31627 32.2871 8.34354 32.4539 8.39561C33.2176 8.6338 33.6507 9.34667 33.5254 10.1194C33.3708 11.0708 32.5677 11.7714 31.5378 11.7714C31.3347 11.7714 31.1488 11.7443 30.9818 11.6922C30.2182 11.454 29.7825 10.7412 29.9078 9.96846C30.0623 9.01703 30.8679 8.31627 31.8979 8.31627Z" fill="#003087"/>
<path d="M46.5949 3.39966C46.4591 3.39966 46.3437 3.49546 46.3225 3.62592L44.7502 13.3135C44.7444 13.3489 44.7467 13.3851 44.7567 13.4196C44.7668 13.454 44.7844 13.486 44.8084 13.5132C44.8323 13.5404 44.8621 13.5623 44.8956 13.5773C44.929 13.5923 44.9655 13.6 45.0023 13.6H46.867C47.0026 13.6 47.1182 13.504 47.1394 13.3738L47.6013 10.5289C47.6223 10.3986 47.7379 10.3027 47.8737 10.3027H49.569C51.5498 10.3027 53.231 8.8985 53.538 6.99581C53.8478 5.07703 52.3051 3.40382 50.1184 3.39966H46.5949ZM48.4075 5.56231H49.7639C50.8805 5.56231 51.2442 6.20247 51.1292 6.91042C51.0142 7.61988 50.4497 8.14246 49.3692 8.14246H47.9887L48.4075 5.56231ZM57.3306 6.22084C56.8597 6.22254 56.3179 6.31627 55.7097 6.56241C54.3146 7.1274 53.6446 8.29507 53.36 9.14635C53.36 9.14635 52.4548 11.7435 54.5009 13.1704C54.5009 13.1704 56.398 14.5441 58.5343 13.0858L58.4975 13.3135C58.4918 13.3489 58.494 13.3851 58.5041 13.4196C58.5141 13.454 58.5317 13.486 58.5557 13.5132C58.5797 13.5404 58.6094 13.5623 58.6429 13.5773C58.6764 13.5923 58.7128 13.6 58.7497 13.6H60.5196C60.6554 13.6 60.7708 13.504 60.792 13.3738L61.8692 6.73963C61.8749 6.70422 61.8727 6.668 61.8627 6.63349C61.8527 6.59898 61.8351 6.56699 61.8111 6.53973C61.7872 6.51246 61.7574 6.49057 61.7239 6.47556C61.6904 6.46055 61.6539 6.45278 61.617 6.45278H59.8469C59.711 6.45278 59.5955 6.54878 59.5744 6.67904L59.5165 7.03614C59.5165 7.03614 58.7432 6.21573 57.3306 6.22084ZM57.3884 8.31627C57.5917 8.31627 57.7776 8.34354 57.9444 8.39561C58.7082 8.6338 59.1412 9.34667 59.0159 10.1194C58.8613 11.0708 58.0582 11.7714 57.0283 11.7714C56.8252 11.7714 56.6393 11.7443 56.4723 11.6922C55.7087 11.454 55.273 10.7412 55.3983 9.96846C55.5528 9.01703 56.3585 8.31627 57.3884 8.31627Z" fill="#0070E0"/>
<path d="M37.218 6.45276C37.0777 6.45276 36.9779 6.58587 37.0208 6.71557L38.9614 12.5664L37.2067 15.3236C37.1215 15.4574 37.2205 15.6303 37.3825 15.6303H39.4564C39.5157 15.6303 39.574 15.6154 39.6257 15.587C39.6773 15.5587 39.7206 15.5179 39.7513 15.4686L45.1711 6.7576C45.2543 6.62374 45.155 6.45258 44.994 6.45258H42.9202C42.8604 6.45263 42.8015 6.46782 42.7495 6.49667C42.6975 6.52552 42.6541 6.56703 42.6236 6.61711L40.4903 10.1165L39.4073 6.64305C39.372 6.53002 39.2647 6.45258 39.1432 6.45258L37.218 6.45276Z" fill="#003087"/>
<path d="M63.88 3.39966C63.7444 3.39966 63.6288 3.49565 63.6076 3.62592L62.0349 13.3132C62.0291 13.3486 62.0313 13.3848 62.0413 13.4193C62.0513 13.4538 62.0689 13.4858 62.0929 13.5131C62.1169 13.5403 62.1466 13.5622 62.1802 13.5772C62.2137 13.5923 62.2502 13.6 62.2871 13.6H64.1517C64.2873 13.6 64.4029 13.504 64.4241 13.3738L65.9964 3.68613C66.0021 3.65078 65.9999 3.61464 65.9899 3.5802C65.9799 3.54576 65.9623 3.51384 65.9384 3.48662C65.9144 3.45941 65.8847 3.43754 65.8513 3.42253C65.8179 3.40752 65.7815 3.39972 65.7447 3.39966H63.88Z" fill="#0070E0"/>
<path d="M5.55917 3.39966C5.43906 3.39975 5.32292 3.44146 5.23162 3.51729C5.14032 3.59313 5.07983 3.6981 5.06105 3.81337L4.2334 8.91346C4.27199 8.67527 4.48323 8.49975 4.73151 8.49975H7.15681C9.59771 8.49975 11.6689 6.76974 12.0474 4.42532C12.0755 4.25029 12.0915 4.07361 12.0951 3.89649C11.4748 3.58048 10.7461 3.39966 9.94771 3.39966H5.55917Z" fill="#001C64"/>
<path d="M12.0952 3.89667C12.0916 4.07379 12.0756 4.25047 12.0475 4.4255C11.669 6.76992 9.59762 8.49992 7.15692 8.49992H4.73162C4.48353 8.49992 4.27209 8.67525 4.23351 8.91363L3.47249 13.6002L2.99581 16.5403C2.98651 16.5971 2.98999 16.6552 3.00604 16.7105C3.02208 16.7659 3.05031 16.8172 3.08875 16.861C3.1272 16.9047 3.17495 16.9398 3.22872 16.9639C3.28249 16.988 3.34099 17.0004 3.40019 17.0004H6.03265C6.15277 17.0003 6.26891 16.9586 6.36021 16.8827C6.45151 16.8069 6.51198 16.7019 6.53076 16.5867L7.22415 12.3138C7.24294 12.1985 7.30348 12.0935 7.39486 12.0176C7.48624 11.9418 7.60248 11.9001 7.72267 11.9001H9.27256C11.7135 11.9001 13.7847 10.1701 14.1631 7.82568C14.4319 6.16175 13.5693 4.64759 12.0952 3.89667Z" fill="#0070E0"/>
<path d="M2.56846 0.000244141C2.32038 0.000244141 2.10894 0.175574 2.07035 0.413576L0.00459584 13.1403C-0.0345754 13.3819 0.157583 13.6004 0.40937 13.6004H3.47271L4.23334 8.91385L5.06099 3.81376C5.07978 3.6985 5.14026 3.59352 5.23156 3.51769C5.32286 3.44186 5.439 3.40015 5.55912 3.40005H9.94765C10.7463 3.40005 11.4748 3.58106 12.0951 3.89688C12.1375 1.76244 10.3247 0.000244141 7.83241 0.000244141H2.56846Z" fill="#003087"/>
</g>
<defs>
<clipPath id="clip0_511_4290">
<rect width="66" height="17" fill="white"/>
</clipPath>
</defs>
</svg>
