<svg width="92" height="17" viewBox="0 0 92 17" fill="none" xmlns="http://www.w3.org/2000/svg">
<g clip-path="url(#clip0_511_4317)">
<path d="M7.57182 8.31892C7.57182 6.79101 6.4104 5.71715 4.98377 5.71715C3.55712 5.71715 2.3957 6.8091 2.3957 8.31892C2.3957 9.81065 3.55712 10.9207 4.98377 10.9207C6.41185 10.9193 7.57182 9.84684 7.57182 8.31892ZM7.59222 12.8665V11.684C6.88836 12.503 5.84061 13.0114 4.58594 13.0114C1.97893 13.0114 0 11.0099 0 8.31892C0 5.64471 2.05471 3.6084 4.64423 3.6084C5.86251 3.6084 6.88986 4.11817 7.59366 4.91766V3.77136H9.934V12.8665H7.59222Z" fill="black"/>
<path d="M21.3019 10.8469C20.4829 10.8469 20.2556 10.5558 20.2556 9.79256V5.75473H21.7595V3.77137H20.2556V1.5526H17.857V3.77137H14.7676V3.21842C14.7676 2.45376 15.0722 2.16266 15.9101 2.16266H16.4362V0.397949H15.282C13.3031 0.397949 12.3705 1.01636 12.3705 2.90782V3.76998H11.0386V5.75336H12.3705V12.8651H14.7691V5.75336H17.8584V10.2104C17.8584 12.0656 18.6002 12.8665 20.5412 12.8665H21.7784V10.8469H21.3019Z" fill="black"/>
<path d="M29.904 7.49996C29.7334 6.31741 28.7236 5.60846 27.5447 5.60846C26.3643 5.60846 25.3938 6.29932 25.1475 7.49996H29.904ZM25.1271 8.91924C25.2991 10.2647 26.3075 11.0294 27.5826 11.0294C28.591 11.0294 29.3721 10.5739 29.8282 9.84683H32.2836C31.7124 11.7745 29.904 13.0114 27.5258 13.0114C24.652 13.0114 22.6353 11.0837 22.6353 8.33701C22.6353 5.59036 24.7672 3.60699 27.584 3.60699C30.4198 3.60699 32.4745 5.60851 32.4745 8.33701C32.4745 8.53761 32.4556 8.73679 32.4177 8.91924H25.1271Z" fill="black"/>
<path d="M47.7248 8.31892C47.7248 6.8453 46.5634 5.71716 45.1368 5.71716C43.7101 5.71716 42.5487 6.8091 42.5487 8.31892C42.5487 9.81065 43.7101 10.9207 45.1368 10.9207C46.5634 10.9193 47.7248 9.79255 47.7248 8.31892ZM40.188 3.77136H42.5283V4.95387C43.2321 4.11678 44.2784 3.6084 45.5346 3.6084C48.1037 3.6084 50.1206 5.62799 50.1206 8.30083C50.1206 10.975 48.0658 13.0127 45.4778 13.0127C44.2784 13.0127 43.289 12.5573 42.6041 11.7941V16.6091H40.188V3.77136Z" fill="black"/>
<path d="M58.5562 8.31892C58.5562 6.79101 57.3962 5.71715 55.968 5.71715C54.5415 5.71715 53.38 6.8091 53.38 8.31892C53.38 9.81065 54.5415 10.9207 55.968 10.9207C57.3962 10.9193 58.5562 9.84684 58.5562 8.31892ZM58.5767 12.8665V11.684C57.8728 12.503 56.8248 13.0114 55.5701 13.0114C52.9633 13.0114 50.9844 11.0099 50.9844 8.31892C50.9844 5.64471 53.0391 3.6084 55.6272 3.6084C56.8453 3.6084 57.8728 4.11817 58.5767 4.91766V3.77136H60.9172V12.8665H58.5767Z" fill="black"/>
<path d="M35.9692 4.66277C35.9692 4.66277 36.5653 3.6084 38.0239 3.6084C38.6476 3.6084 39.0513 3.81314 39.0513 3.81314V6.1336C39.0513 6.1336 38.1711 5.61406 37.3623 5.71853C36.5536 5.82299 36.0421 6.53332 36.045 7.48324V12.8679H33.6289V3.77275H35.9692V4.66277Z" fill="black"/>
<path d="M71.8474 3.77136L65.9383 16.5798H63.4465L65.7665 11.6283L61.8438 3.77136H64.668L66.9631 9.02092L69.3179 3.77136H71.8474Z" fill="black"/>
<path d="M90.7103 3.56522L84.8522 0.333862C83.1325 -0.61465 80.9832 0.570645 80.9832 2.46906V2.80056C80.9832 3.10001 81.1506 3.37719 81.4216 3.52622L82.5278 4.13627C82.8526 4.31595 83.2577 4.09171 83.2577 3.73375V2.9092C83.2577 2.49692 83.7244 2.23925 84.0974 2.44539L89.1712 5.24497C89.5447 5.4511 89.5447 5.96645 89.1712 6.17122L84.0974 8.97079C83.7244 9.17693 83.2577 8.91924 83.2577 8.50696V8.0682C83.2577 6.16979 81.1085 4.98312 79.3876 5.933L73.5295 9.16437C71.8098 10.1129 71.8098 12.4863 73.5295 13.4348L79.3876 16.6661C81.1068 17.6146 83.2577 16.4293 83.2577 14.5309V14.1994C83.2577 13.9 83.0903 13.6242 82.8193 13.4738L81.7131 12.8623C81.3883 12.6827 80.9832 12.9069 80.9832 13.2649V14.0894C80.9832 14.5017 80.5171 14.7593 80.1436 14.5532L75.0697 11.7536C74.6967 11.5475 74.6967 11.0322 75.0697 10.826L80.1436 8.02641C80.5171 7.82027 80.9832 8.07796 80.9832 8.49024V8.929C80.9832 10.8274 83.1325 12.0141 84.8522 11.0642L90.7103 7.83283C92.43 6.88708 92.43 4.51373 90.7103 3.56522Z" fill="black"/>
</g>
<defs>
<clipPath id="clip0_511_4317">
<rect width="92" height="17" fill="white"/>
</clipPath>
</defs>
</svg>
