<svg width="90" height="16" viewBox="0 0 90 16" fill="none" xmlns="http://www.w3.org/2000/svg">
<g clip-path="url(#clip0_511_4299)">
<path d="M72.5057 8.98565V12.7489H71.2998V3.45605H74.4918C75.3042 3.45605 75.9942 3.72485 76.5617 4.26245C77.1356 4.80005 77.4258 5.45285 77.4258 6.22085C77.4258 7.00805 77.1356 7.66725 76.5617 8.19205C76.0007 8.72326 75.3171 8.98565 74.4918 8.98565H72.5057ZM72.5057 4.60165V7.84645H74.5175C74.9947 7.84645 75.3945 7.68645 75.7105 7.36645C76.0329 7.04645 76.1941 6.66245 76.1941 6.22085C76.1941 5.78565 76.0329 5.41445 75.7105 5.09445C75.3945 4.76805 75.0012 4.60165 74.5175 4.60165H72.5057Z" fill="#5F6368"/>
<path d="M80.5725 6.18243C81.4624 6.18243 82.1653 6.41923 82.6811 6.89283C83.197 7.36643 83.4549 8.01283 83.4549 8.83203V12.7552H82.3007V11.872H82.2491C81.7526 12.6016 81.0884 12.96 80.263 12.96C79.5537 12.96 78.9669 12.7552 78.4897 12.3392C78.0125 11.9232 77.7739 11.4048 77.7739 10.784C77.7739 10.1248 78.0254 9.60003 78.5284 9.21603C79.0314 8.82563 79.702 8.63363 80.5338 8.63363C81.2496 8.63363 81.8364 8.76163 82.3007 9.02403V8.74883C82.3007 8.33283 82.133 7.98083 81.8042 7.69283C81.4753 7.40483 81.0819 7.25763 80.637 7.25763C79.9664 7.25763 79.4312 7.53923 79.0443 8.10243L77.9867 7.44323C78.5671 6.59843 79.4312 6.18243 80.5725 6.18243ZM79.0185 10.8032C79.0185 11.1168 79.1539 11.3728 79.4183 11.584C79.6826 11.7888 79.9986 11.8976 80.3533 11.8976C80.8563 11.8976 81.3076 11.712 81.7074 11.3408C82.1072 10.9696 82.3007 10.5344 82.3007 10.0288C81.9267 9.73443 81.4044 9.58723 80.7337 9.58723C80.2437 9.58723 79.8374 9.70243 79.5085 9.93923C79.1797 10.1696 79.0185 10.4576 79.0185 10.8032Z" fill="#5F6368"/>
<path d="M90.0001 6.39368L85.9828 15.5585H84.7382L86.2278 12.3521L83.584 6.39368H84.893L86.8017 10.9633H86.8275L88.6847 6.39368H90.0001Z" fill="#5F6368"/>
<path d="M30.6556 8.67841V7.23841H35.5048C35.5564 7.49441 35.5822 7.79521 35.5822 8.12161C35.5822 9.19681 35.2855 10.5344 34.3312 11.4816C33.4026 12.4416 32.2097 12.96 30.6362 12.96C27.7151 12.96 25.2583 10.5984 25.2583 7.69921C25.2583 4.80001 27.7087 2.43201 30.6298 2.43201C32.2483 2.43201 33.3962 3.05921 34.2602 3.88481L33.2414 4.89601C32.6223 4.32001 31.7776 3.87201 30.6298 3.87201C28.4954 3.87201 26.8317 5.58081 26.8317 7.69921C26.8317 9.81761 28.4954 11.52 30.6298 11.52C32.0162 11.52 32.8029 10.9696 33.3059 10.4704C33.7186 10.0608 33.9894 9.47841 34.0926 8.67841H30.6556Z" fill="#5F6368"/>
<path d="M42.9654 9.56803C42.9654 11.52 41.4242 12.9536 39.5413 12.9536C37.6584 12.9536 36.1172 11.5136 36.1172 9.56803C36.1172 7.60323 37.6584 6.18243 39.5413 6.18243C41.4307 6.18243 42.9654 7.60963 42.9654 9.56803ZM41.4693 9.56803C41.4693 8.34563 40.5795 7.51363 39.5413 7.51363C38.5095 7.51363 37.6132 8.34563 37.6132 9.56803C37.6132 10.7712 38.5031 11.6224 39.5413 11.6224C40.5795 11.6224 41.4693 10.7776 41.4693 9.56803Z" fill="#5F6368"/>
<path d="M50.439 9.56803C50.439 11.52 48.8978 12.9536 47.0149 12.9536C45.132 12.9536 43.5908 11.52 43.5908 9.56803C43.5908 7.60323 45.132 6.18243 47.0149 6.18243C48.9043 6.18243 50.439 7.60963 50.439 9.56803ZM48.943 9.56803C48.943 8.34563 48.0531 7.51363 47.0149 7.51363C45.9832 7.51363 45.0868 8.34563 45.0868 9.56803C45.0868 10.7712 45.9767 11.6224 47.0149 11.6224C48.0466 11.6224 48.943 10.7776 48.943 9.56803Z" fill="#5F6368"/>
<path d="M57.6036 6.38723V12.4672C57.6036 14.9696 56.114 15.9936 54.3601 15.9936C52.7028 15.9936 51.7098 14.8928 51.3358 13.9904L52.6383 13.4528C52.8705 14.0032 53.4379 14.656 54.3601 14.656C55.4821 14.656 56.185 13.9648 56.185 12.6656V12.1792H56.1334C55.798 12.5888 55.1532 12.9472 54.3343 12.9472C52.6254 12.9472 51.0649 11.4688 51.0649 9.57443C51.0649 7.66083 52.6319 6.17603 54.3343 6.17603C55.1468 6.17603 55.798 6.53443 56.1334 6.93123H56.185V6.38083L57.6036 6.38723ZM56.2881 9.58082C56.2881 8.39042 55.4885 7.51363 54.4632 7.51363C53.4315 7.51363 52.561 8.38403 52.561 9.58082C52.561 10.7584 53.425 11.6224 54.4632 11.6224C55.4821 11.6224 56.2881 10.7648 56.2881 9.58082Z" fill="#5F6368"/>
<path d="M60.1441 2.8288V12.7552H58.6416V2.8288H60.1441Z" fill="#5F6368"/>
<path d="M65.9346 10.688L67.0953 11.456C66.7213 12.0064 65.8186 12.96 64.2516 12.96C62.3106 12.96 60.8662 11.4688 60.8662 9.57438C60.8662 7.55838 62.33 6.18878 64.0839 6.18878C65.8573 6.18878 66.7213 7.59038 67.0051 8.34558L67.1598 8.72958L62.5944 10.6048C62.9426 11.2832 63.4843 11.6288 64.2516 11.6288C65.019 11.6224 65.5477 11.2512 65.9346 10.688ZM62.3558 9.46558L65.4059 8.20478C65.2382 7.78238 64.7352 7.48798 64.142 7.48798C63.3746 7.49438 62.3171 8.15998 62.3558 9.46558Z" fill="#5F6368"/>
<path d="M9.59533 9.29923L14.1027 1.54883L16.5596 2.95683C18.1459 3.86563 18.6875 5.87523 17.7719 7.44963L15.2312 11.8144C14.6573 12.8 13.3934 13.1328 12.4004 12.5696L10.1241 11.264C9.43412 10.8608 9.19553 9.98403 9.59533 9.29923Z" fill="url(#paint0_linear_511_4299)"/>
<path d="M9.11829 3.91683L3.51465 13.5552L5.97148 14.9632C7.55778 15.872 9.58257 15.3344 10.4982 13.76L14.1351 7.50723C14.709 6.52163 14.3673 5.26723 13.3742 4.69763L11.0915 3.39203C10.4015 2.99523 9.51809 3.23203 9.11829 3.91683Z" fill="#FDBD00"/>
<path d="M14.1026 1.54883L12.368 0.55043C10.3883 -0.58237 7.85413 0.0896296 6.70632 2.05443L3.48213 7.59683C2.90823 8.58243 3.24999 9.83683 4.24304 10.4064L5.97766 11.4048C6.97071 11.9744 8.23459 11.6352 8.80849 10.6496L12.6582 4.03203C13.4578 2.65603 15.2246 2.18883 16.611 2.98243" fill="#2DA94F"/>
<path d="M7.20933 3.68L5.29416 2.5856C4.43652 2.0992 3.34675 2.3872 2.85667 3.232L0.548153 7.1744C-0.586761 9.1136 0.0903182 11.5968 2.05063 12.7232L3.50796 13.5552L5.28126 14.5664L6.04862 15.008C4.68801 14.0992 4.25597 12.288 5.08781 10.8608L5.68106 9.8432L7.86061 6.1056C8.35714 5.248 8.06051 4.1664 7.20933 3.68Z" fill="url(#paint1_linear_511_4299)"/>
</g>
<defs>
<linearGradient id="paint0_linear_511_4299" x1="10.7252" y1="6.15763" x2="17.4026" y2="8.60639" gradientUnits="userSpaceOnUse">
<stop offset="0.2" stop-color="#D93025"/>
<stop offset="0.6" stop-color="#EA4335"/>
</linearGradient>
<linearGradient id="paint1_linear_511_4299" x1="0.569833" y1="6.93954" x2="8.00853" y2="9.66747" gradientUnits="userSpaceOnUse">
<stop offset="0.2" stop-color="#4285F4"/>
<stop offset="0.8" stop-color="#1B74E8"/>
</linearGradient>
<clipPath id="clip0_511_4299">
<rect width="90" height="16" fill="white"/>
</clipPath>
</defs>
</svg>
