<svg width="68" height="16" viewBox="0 0 68 16" fill="none" xmlns="http://www.w3.org/2000/svg">
<g clip-path="url(#clip0_511_4282)">
<path d="M17.4624 5.10531C16.915 3.96872 15.8791 3.23407 14.3173 3.23407C13.8369 3.24206 13.3673 3.35917 12.9406 3.57744C12.5139 3.79571 12.1435 4.10714 11.8591 4.48777L11.8027 4.55698V0.0958243C11.8027 0.0692065 11.792 0.0452504 11.7732 0.0266179C11.7544 0.0106471 11.7303 0 11.7034 0H9.49481C9.46797 0 9.44382 0.0106471 9.42772 0.0292797C9.40893 0.0479122 9.40088 0.0718682 9.40088 0.0984861V12.8857C9.40088 12.9123 9.41161 12.9363 9.42772 12.9523C9.4465 12.9709 9.47065 12.9789 9.49481 12.9789H11.8591C11.8859 12.9789 11.9101 12.9682 11.9288 12.9523C11.9476 12.9336 11.9584 12.9097 11.9584 12.8857V7.43171C11.9584 6.37232 12.6695 5.62169 13.8101 5.62169C15.0579 5.62169 15.3719 6.6385 15.3719 7.67659V12.8857C15.3719 12.9123 15.3826 12.9363 15.3987 12.9523C15.4175 12.9709 15.4417 12.9789 15.4658 12.9789H17.8247C17.8516 12.9789 17.8757 12.9682 17.8945 12.9523C17.9133 12.9336 17.924 12.9097 17.924 12.8857V7.36516C17.924 7.17618 17.924 6.98985 17.8999 6.81151C17.8596 6.2206 17.712 5.64299 17.4624 5.10531Z" fill="#5A31F4"/>
<path d="M5.65437 7.00051C5.65437 7.00051 4.44943 6.71836 4.00663 6.60656C3.56383 6.49477 2.78827 6.25254 2.78827 5.67228C2.78827 5.09201 3.41355 4.90568 4.04688 4.90568C4.68022 4.90568 5.38601 5.0574 5.44236 5.75479C5.44505 5.77875 5.45578 5.8027 5.47457 5.82134C5.49335 5.83731 5.5175 5.84795 5.54434 5.84795L7.8764 5.83997C7.88981 5.83997 7.90323 5.83731 7.91665 5.83198C7.93007 5.82666 7.9408 5.81867 7.94885 5.80803C7.9569 5.79738 7.96496 5.78673 7.97032 5.77342C7.97569 5.76011 7.97569 5.74681 7.97569 5.7335C7.83077 3.50026 5.85564 2.70172 4.03347 2.70172C1.87316 2.70172 0.292514 4.11513 0.292514 5.67228C0.292514 6.80886 0.61723 7.87624 3.16398 8.61887C3.61214 8.74664 4.21864 8.91433 4.74999 9.06339C5.38869 9.23907 5.73219 9.50791 5.73219 9.92581C5.73219 10.4129 5.02104 10.7536 4.32061 10.7536C3.30621 10.7536 2.587 10.381 2.52796 9.71021C2.52528 9.68625 2.51186 9.66229 2.49307 9.64632C2.47429 9.63035 2.45014 9.62237 2.42598 9.62237L0.0992936 9.63301C0.0858755 9.63301 0.0724575 9.63568 0.0590394 9.641C0.0456214 9.64632 0.0348869 9.65431 0.0268361 9.66496C0.0161017 9.6756 0.0107344 9.68625 0.00536722 9.69956C0.00268361 9.71021 0 9.72352 0 9.73682C0.107344 11.845 2.15762 12.9789 4.07104 12.9789C6.92103 12.9789 8.20916 11.3898 8.20916 9.89919C8.21185 9.2018 8.04815 7.60739 5.65437 7.00051Z" fill="#5A31F4"/>
<path d="M35.6439 3.22874C34.4605 3.22874 33.4675 3.87821 32.8288 4.66344V3.3219C32.8288 3.29794 32.8181 3.27399 32.802 3.25535C32.7832 3.23672 32.7617 3.22607 32.7349 3.22607H30.5236C30.4968 3.22607 30.4726 3.23672 30.4565 3.25269C30.4377 3.27132 30.4297 3.29528 30.4297 3.31924V15.8589C30.4297 15.8829 30.4404 15.9068 30.4592 15.9255C30.478 15.9441 30.5021 15.9521 30.5263 15.9521H32.8932C32.9174 15.9521 32.9415 15.9414 32.9603 15.9255C32.9791 15.9068 32.9872 15.8829 32.9872 15.8589V11.7385H33.0221C33.3978 12.3081 34.4256 12.9895 35.7674 12.9895C38.2927 12.9895 40.3966 10.9133 40.3966 8.10513C40.3966 5.4114 38.3034 3.22874 35.6439 3.22874ZM35.4239 10.5992C34.9247 10.6125 34.4336 10.4768 34.015 10.2106C33.5937 9.94442 33.2636 9.56113 33.0623 9.10862C32.8637 8.65612 32.8047 8.15304 32.8932 7.66593C32.9818 7.17883 33.2153 6.72899 33.5641 6.37497C33.913 6.02095 34.3585 5.77607 34.8469 5.67492C35.3353 5.57377 35.8425 5.61902 36.3041 5.80268C36.7657 5.98901 37.1629 6.30576 37.442 6.71568C37.7211 7.12559 37.8713 7.60738 37.8713 8.10247C37.8767 8.42454 37.8177 8.74662 37.6969 9.0474C37.5761 9.34818 37.399 9.62235 37.1709 9.85392C36.9428 10.0855 36.6718 10.2718 36.3712 10.3969C36.0733 10.5274 35.7513 10.5966 35.4239 10.5992Z" fill="#5A31F4"/>
<path d="M23.4226 2.67773C21.2167 2.67773 20.1164 3.42037 19.2335 4.01661L19.2066 4.03525C19.161 4.06719 19.1288 4.11244 19.1181 4.16567C19.1047 4.21891 19.1154 4.27481 19.1422 4.32272L20.0144 5.81332C20.0305 5.83994 20.052 5.86389 20.0788 5.88253C20.1057 5.90116 20.1352 5.9118 20.1674 5.91713C20.1996 5.92245 20.2318 5.92245 20.2613 5.91447C20.2908 5.90648 20.3203 5.89051 20.3445 5.87188L20.4143 5.81598C20.8678 5.43801 21.5977 4.93227 23.3609 4.79385C24.3431 4.71666 25.1911 4.96953 25.8137 5.5498C26.5007 6.17798 26.9113 7.19479 26.9113 8.26749C26.9113 10.2399 25.7385 11.4803 23.8573 11.5042C22.3062 11.4962 21.265 10.6924 21.265 9.50788C21.265 8.8797 21.5521 8.46978 22.1103 8.05987C22.1532 8.03059 22.1828 7.98534 22.1962 7.93476C22.2096 7.88419 22.2015 7.83095 22.1774 7.7857L21.3938 6.3164C21.3804 6.28978 21.3589 6.26582 21.3374 6.24719C21.316 6.22856 21.2864 6.21525 21.2569 6.20726C21.2274 6.19928 21.1952 6.19662 21.1657 6.19928C21.1362 6.20194 21.1066 6.21259 21.0798 6.22856C20.1996 6.74494 19.1208 7.69254 19.1798 9.5132C19.2523 11.829 21.1925 13.5964 23.7151 13.6683H23.8412H24.013C27.0106 13.5724 29.1763 11.3631 29.1763 8.36863C29.1763 5.62167 27.1582 2.67773 23.4226 2.67773Z" fill="#5A31F4"/>
<path d="M49.719 4.09119H48.2162C48.1813 4.09119 48.1464 4.1045 48.1223 4.13111C48.0981 4.15507 48.082 4.18967 48.082 4.22428V7.35188C48.082 7.38648 48.0955 7.42108 48.1223 7.44504C48.1464 7.46899 48.1813 7.4823 48.2162 7.4823H49.719C50.6341 7.4823 51.3104 6.76628 51.3104 5.78674C51.3104 4.80721 50.6341 4.09119 49.719 4.09119Z" fill="#5A31F4"/>
<path d="M54.3379 9.62502C54.3379 10.0802 54.7243 10.3304 55.3979 10.3304C56.313 10.3304 56.8551 9.84062 56.8551 8.96755V8.71735L55.4838 8.78921C54.7592 8.82382 54.3379 9.12194 54.3379 9.62502Z" fill="#5A31F4"/>
<path d="M65.4694 0.0292547H45.2726C44.9425 0.0292547 44.6124 0.0931376 44.3065 0.220903C44.0006 0.346007 43.7215 0.532332 43.488 0.763908C43.2545 0.995483 43.0667 1.27231 42.9405 1.57575C42.8144 1.8792 42.75 2.20393 42.75 2.534V13.5006C42.75 14.1633 43.0157 14.7995 43.488 15.2706C43.9603 15.7391 44.6017 16.0026 45.2699 16.0053H65.4641C65.7968 16.0053 66.1242 15.9414 66.4302 15.8163C66.7361 15.6912 67.0152 15.5075 67.2514 15.276C67.4875 15.0444 67.6727 14.7676 67.8015 14.4641C67.9303 14.1607 67.9947 13.8359 67.9947 13.5059V2.534C67.9947 2.20393 67.9303 1.87653 67.8042 1.57309C67.6781 1.26965 67.4902 0.992821 67.2567 0.758584C67.0206 0.524347 66.7415 0.340684 66.4355 0.21558C66.1296 0.0904758 65.7995 0.0265929 65.4694 0.0292547ZM49.7972 8.712H48.2085C48.1736 8.712 48.1387 8.72531 48.1145 8.75193C48.0904 8.77589 48.0743 8.81049 48.0743 8.84509V11.089C48.0743 11.1236 48.0609 11.1582 48.034 11.1821C48.0099 11.2061 47.975 11.2221 47.9401 11.2221H46.821C46.7861 11.2221 46.7513 11.2088 46.7271 11.1821C46.703 11.1582 46.6869 11.1236 46.6869 11.089V2.99715C46.6869 2.96254 46.7003 2.92794 46.7271 2.90398C46.7513 2.88003 46.7861 2.86406 46.821 2.86406H49.7945C51.4798 2.86406 52.6847 4.08049 52.6847 5.78936C52.6847 7.49823 51.4878 8.71733 49.8025 8.71733L49.7972 8.712ZM58.1673 11.0863C58.1673 11.1049 58.1647 11.1209 58.1566 11.1369C58.1486 11.1529 58.1405 11.1688 58.1271 11.1795C58.1137 11.1928 58.1003 11.2008 58.0841 11.2088C58.068 11.2167 58.0493 11.2194 58.0332 11.2194H56.9785C56.9597 11.2194 56.9436 11.2167 56.9275 11.2088C56.9114 11.2008 56.8953 11.1928 56.8846 11.1795C56.8712 11.1662 56.8631 11.1529 56.8551 11.1369C56.847 11.1209 56.8443 11.1023 56.8443 11.0863V10.8441C56.847 10.8228 56.8416 10.8015 56.8282 10.7829C56.8175 10.7642 56.8014 10.7509 56.7799 10.7429C56.7611 10.735 56.737 10.735 56.7182 10.7403C56.6967 10.7456 56.6779 10.7589 56.6672 10.7749C56.3505 11.1156 55.838 11.3631 55.0221 11.3631C53.8172 11.3631 53.0229 10.7403 53.0229 9.66758C53.0121 9.40673 53.0658 9.14587 53.1812 8.90898C53.2966 8.67208 53.471 8.46978 53.6857 8.31806C54.1205 7.99598 54.794 7.82829 55.7923 7.78836L56.8524 7.75376V7.44765C56.8524 6.82746 56.431 6.56394 55.7575 6.56394C55.0839 6.56394 54.6572 6.80084 54.5579 7.1868C54.5498 7.21342 54.5337 7.23737 54.5096 7.25334C54.4854 7.26931 54.4586 7.2773 54.4291 7.2773H53.3825C53.3637 7.2773 53.3449 7.27464 53.3261 7.26665C53.3073 7.25867 53.2939 7.24802 53.2805 7.23205C53.2671 7.21874 53.259 7.20011 53.2537 7.18148C53.2483 7.16284 53.2456 7.14421 53.251 7.12558C53.4066 6.20726 54.1741 5.50987 55.8058 5.50987C57.5394 5.50987 58.1647 6.31107 58.1647 7.83894L58.1673 11.0863ZM64.7449 5.83727L62.394 12.0579C61.86 13.5032 60.9234 13.8732 59.901 13.8732C59.7077 13.8785 59.5145 13.8546 59.3293 13.804C59.2998 13.796 59.2757 13.78 59.2569 13.7561C59.2381 13.7321 59.2274 13.7029 59.2274 13.6736V12.7286C59.2274 12.71 59.2327 12.6887 59.2408 12.6701C59.2488 12.6514 59.2623 12.6355 59.2757 12.6248C59.2918 12.6115 59.3079 12.6035 59.3293 12.5982C59.3481 12.5929 59.3696 12.5929 59.3884 12.5955C59.5494 12.6248 59.7131 12.6408 59.8768 12.6408C60.1586 12.6541 60.4404 12.5743 60.6712 12.4119C60.9019 12.2495 61.071 12.0153 61.1542 11.7464L61.224 11.5282C61.2347 11.4989 61.2347 11.467 61.224 11.4377L59.0261 5.83727C59.018 5.81598 59.018 5.79468 59.0207 5.77605C59.0234 5.75476 59.0315 5.73613 59.0449 5.71749C59.0583 5.70152 59.0744 5.68555 59.0932 5.67757C59.112 5.66692 59.1334 5.6616 59.1549 5.6616H60.223C60.2498 5.6616 60.2767 5.66958 60.2981 5.68555C60.3196 5.70152 60.3384 5.72282 60.3491 5.74677L61.8412 9.69686C61.8519 9.72348 61.868 9.74478 61.8922 9.76075C61.9163 9.77672 61.9432 9.7847 61.97 9.7847C61.9969 9.7847 62.0264 9.77672 62.0478 9.76075C62.072 9.74478 62.0881 9.72348 62.0988 9.69686L63.3923 5.75742C63.4004 5.7308 63.4192 5.70685 63.4406 5.69088C63.4648 5.6749 63.4916 5.66426 63.5211 5.66692H64.6161C64.6375 5.66692 64.659 5.67224 64.6778 5.68023C64.6966 5.69088 64.7127 5.70418 64.7261 5.72015C64.7395 5.73613 64.7476 5.75742 64.7502 5.77605C64.7529 5.79735 64.7529 5.81864 64.7476 5.83727H64.7449Z" fill="#5A31F4"/>
</g>
<defs>
<clipPath id="clip0_511_4282">
<rect width="68" height="16" fill="white"/>
</clipPath>
</defs>
</svg>
