<svg width="24" height="24" viewBox="0 0 24 24" fill="none" xmlns="http://www.w3.org/2000/svg">
<path d="M12.1499 16.5V18.6" stroke="#23272F" stroke-width="1.5" stroke-linecap="round" stroke-linejoin="round"/>
<path d="M7.1499 22H17.1499V21C17.1499 19.9 16.2499 19 15.1499 19H9.1499C8.0499 19 7.1499 19.9 7.1499 21V22V22Z" stroke="#23272F" stroke-width="1.5" stroke-miterlimit="10"/>
<path d="M6.1499 22H18.1499" stroke="#23272F" stroke-width="1.5" stroke-linecap="round" stroke-linejoin="round"/>
<path d="M12 16C8.13 16 5 12.87 5 9V6C5 3.79 6.79 2 9 2H15C17.21 2 19 3.79 19 6V9C19 12.87 15.87 16 12 16Z" stroke="#23272F" stroke-width="1.5" stroke-linecap="round" stroke-linejoin="round"/>
<path d="M5.47004 11.65C4.72004 11.41 4.06004 10.97 3.54004 10.45C2.64004 9.44998 2.04004 8.24998 2.04004 6.84998C2.04004 5.44998 3.14004 4.34998 4.54004 4.34998H5.19004C4.99004 4.80998 4.89004 5.31998 4.89004 5.84998V8.84998C4.89004 9.84998 5.10004 10.79 5.47004 11.65Z" stroke="#23272F" stroke-width="1.5" stroke-linecap="round" stroke-linejoin="round"/>
<path d="M18.53 11.65C19.28 11.41 19.94 10.97 20.46 10.45C21.36 9.44998 21.96 8.24998 21.96 6.84998C21.96 5.44998 20.86 4.34998 19.46 4.34998H18.81C19.01 4.80998 19.11 5.31998 19.11 5.84998V8.84998C19.11 9.84998 18.9 10.79 18.53 11.65Z" stroke="#23272F" stroke-width="1.5" stroke-linecap="round" stroke-linejoin="round"/>
<path d="M12.1499 16.5V18.6" stroke="#23272F" stroke-width="1.5" stroke-linecap="round" stroke-linejoin="round"/>
<path d="M7.1499 22H17.1499V21C17.1499 19.9 16.2499 19 15.1499 19H9.1499C8.0499 19 7.1499 19.9 7.1499 21V22V22Z" stroke="#23272F" stroke-width="1.5" stroke-miterlimit="10"/>
<path d="M6.1499 22H18.1499" stroke="#23272F" stroke-width="1.5" stroke-linecap="round" stroke-linejoin="round"/>
<path d="M12 16C8.13 16 5 12.87 5 9V6C5 3.79 6.79 2 9 2H15C17.21 2 19 3.79 19 6V9C19 12.87 15.87 16 12 16Z" stroke="#23272F" stroke-width="1.5" stroke-linecap="round" stroke-linejoin="round"/>
<path d="M5.47004 11.65C4.72004 11.41 4.06004 10.97 3.54004 10.45C2.64004 9.44998 2.04004 8.24998 2.04004 6.84998C2.04004 5.44998 3.14004 4.34998 4.54004 4.34998H5.19004C4.99004 4.80998 4.89004 5.31998 4.89004 5.84998V8.84998C4.89004 9.84998 5.10004 10.79 5.47004 11.65Z" stroke="#23272F" stroke-width="1.5" stroke-linecap="round" stroke-linejoin="round"/>
<path d="M18.53 11.65C19.28 11.41 19.94 10.97 20.46 10.45C21.36 9.44998 21.96 8.24998 21.96 6.84998C21.96 5.44998 20.86 4.34998 19.46 4.34998H18.81C19.01 4.80998 19.11 5.31998 19.11 5.84998V8.84998C19.11 9.84998 18.9 10.79 18.53 11.65Z" stroke="#23272F" stroke-width="1.5" stroke-linecap="round" stroke-linejoin="round"/>
<path d="M14.8905 8.3725L14.2705 9.1325C14.1705 9.2425 14.1005 9.4625 14.1105 9.6125L14.1705 10.5925C14.2105 11.1925 13.7805 11.5025 13.2205 11.2825L12.3105 10.9225C12.1705 10.8725 11.9305 10.8725 11.7905 10.9225L10.8805 11.2825C10.3205 11.5025 9.89053 11.1925 9.93053 10.5925L9.99053 9.6125C10.0005 9.4625 9.93053 9.2425 9.83053 9.1325L9.21053 8.3725C8.82053 7.9125 8.99053 7.4025 9.57053 7.2525L10.5205 7.0125C10.6705 6.9725 10.8505 6.8325 10.9305 6.7025L11.4605 5.8825C11.7905 5.3725 12.3105 5.3725 12.6405 5.8825L13.1705 6.7025C13.2505 6.8325 13.4305 6.9725 13.5805 7.0125L14.5305 7.2525C15.1105 7.4025 15.2805 7.9125 14.8905 8.3725Z" fill="#23272F"/>
<path d="M14.8905 8.3725L14.2705 9.1325C14.1705 9.2425 14.1005 9.4625 14.1105 9.6125L14.1705 10.5925C14.2105 11.1925 13.7805 11.5025 13.2205 11.2825L12.3105 10.9225C12.1705 10.8725 11.9305 10.8725 11.7905 10.9225L10.8805 11.2825C10.3205 11.5025 9.89053 11.1925 9.93053 10.5925L9.99053 9.6125C10.0005 9.4625 9.93053 9.2425 9.83053 9.1325L9.21053 8.3725C8.82053 7.9125 8.99053 7.4025 9.57053 7.2525L10.5205 7.0125C10.6705 6.9725 10.8505 6.8325 10.9305 6.7025L11.4605 5.8825C11.7905 5.3725 12.3105 5.3725 12.6405 5.8825L13.1705 6.7025C13.2505 6.8325 13.4305 6.9725 13.5805 7.0125L14.5305 7.2525C15.1105 7.4025 15.2805 7.9125 14.8905 8.3725Z" fill="#14C9C9"/>
</svg>
