<svg width="222" height="40" viewBox="0 0 222 40" fill="none" xmlns="http://www.w3.org/2000/svg">
<g clip-path="url(#clip0_220_2149)">
<path d="M45.855 1.80957L23.5094 14.6231L30.1141 17.9184L19.1596 28.4664L46.8733 17.0946L38.4937 13.5786L45.855 1.80957Z" fill="#14C9C9"/>
<path d="M44.3565 3.56055L31.0743 14.8882L37.068 17.5804L21.6327 26.5396L30.1141 17.9188L23.5094 14.6234L44.3565 3.56055Z" fill="#07828B"/>
<path d="M22.5638 15.682L29.2122 18.1682L16.4682 28.5985C16.1482 28.8633 16.0609 29.3194 16.2645 29.6725C16.41 29.9373 16.701 30.0991 16.9919 30.0991C17.0938 30.0991 17.1956 30.0844 17.2974 30.0403L47.7171 18.1977C48.0372 18.08 48.2408 17.771 48.2554 17.418C48.2554 17.0796 48.0517 16.756 47.7316 16.6236L39.3375 13.137L48.0808 1.35324C48.3136 1.02959 48.299 0.58825 48.0372 0.294024C47.7753 -0.00020146 47.3389 -0.0737579 47.0043 0.117489L22.4329 14.1521C22.1564 14.3139 21.9819 14.6228 22.011 14.9465C22.0401 15.2848 22.2583 15.5643 22.5638 15.682ZM44.3565 3.55993L37.359 13.0046C37.199 13.2105 37.1553 13.4901 37.2281 13.7401C37.3008 13.9902 37.4754 14.1962 37.7227 14.2992L45.1712 17.3885L21.6473 26.5537L31.4235 18.5507C31.6562 18.3595 31.7726 18.0506 31.729 17.7563C31.6853 17.4621 31.4816 17.212 31.1907 17.109L24.8478 14.7405L44.3565 3.55993Z" fill="white"/>
<path d="M16.9919 40C22.8547 40 27.6119 35.1747 27.6119 29.2608C27.6119 28.79 27.2337 28.4222 26.7827 28.4222C26.3171 28.4222 25.9534 28.8047 25.9534 29.2608C25.9534 34.2626 21.9382 38.3229 16.9919 38.3229C12.0457 38.3229 8.03044 34.2626 8.03044 29.2608C8.03044 24.2589 12.0457 20.1986 16.9919 20.1986C18.4904 20.1986 19.9597 20.5811 21.2545 21.2873C21.6618 21.5079 22.171 21.3608 22.3892 20.9489C22.6074 20.537 22.462 20.0221 22.0546 19.8014C20.5125 18.9482 18.7522 18.5068 16.9919 18.5068C11.1291 18.5068 6.37198 23.3321 6.37198 29.2461C6.37198 30.0993 6.47382 30.9379 6.66294 31.747H0.843779C0.378247 31.747 0.0145493 32.1295 0.0145493 32.5855C0.0145493 33.0563 0.392795 33.4241 0.843779 33.4241H7.21576C7.46307 33.9978 7.75403 34.5569 8.08863 35.0717H2.95322C2.48769 35.0717 2.12399 35.4542 2.12399 35.9103C2.12399 36.3811 2.50224 36.7488 2.95322 36.7488H9.39794C11.3328 38.7643 14.0242 40 16.9919 40Z" fill="white"/>
<path d="M54.38 18.5068C48.5172 18.5068 43.7601 23.3321 43.7601 29.2461C43.7601 30.0993 43.8619 30.9379 44.051 31.747H38.3628C37.8973 31.747 37.5336 32.1295 37.5336 32.5855C37.5336 33.0563 37.9118 33.4241 38.3628 33.4241H44.5893C44.8366 33.9978 45.1276 34.5569 45.4622 35.0717H40.4868C40.0213 35.0717 39.6576 35.4542 39.6576 35.9103C39.6576 36.3811 40.0358 36.7488 40.4868 36.7488H46.8006C48.7355 38.7349 51.4123 39.9706 54.38 39.9706C60.2428 39.9706 65 35.1453 65 29.2314C65 23.3174 60.2283 18.5068 54.38 18.5068ZM54.38 38.3082C49.4337 38.3082 45.4185 34.2479 45.4185 29.2461C45.4185 24.2442 49.4337 20.1839 54.38 20.1839C59.3263 20.1839 63.3415 24.2442 63.3415 29.2461C63.3415 34.2479 59.3118 38.3082 54.38 38.3082Z" fill="white"/>
<path d="M54.38 26.8623C53.0853 26.8623 52.0233 27.9362 52.0233 29.2455C52.0233 30.5548 53.0853 31.6288 54.38 31.6288C55.6748 31.6288 56.7368 30.5548 56.7368 29.2455C56.7368 27.9362 55.6748 26.8623 54.38 26.8623Z" fill="white"/>
</g>
<path d="M77 35.6446V4.37313H87.5072V8.47751H81.7728V17.5747H87.2223V21.5902H81.7728V31.5403H87.721V35.6446H77Z" fill="#14C9C9"/>
<path d="M91.2471 35.6446V4.37313H96.0199V31.5936H102.057V35.6446H91.2471Z" fill="#14C9C9"/>
<path d="M104.639 35.6446V4.37313H115.147V8.47751H109.412V17.5747H114.862V21.5902H109.412V31.5403H115.36V35.6446H104.639Z" fill="#14C9C9"/>
<path d="M125.316 36C123.796 36 122.531 35.6506 121.522 34.9517C120.513 34.2528 119.753 33.2341 119.243 31.8956C118.744 30.5453 118.495 28.9165 118.495 27.0094V13.3815C118.495 11.9482 118.613 10.657 118.851 9.50805C119.088 8.35906 119.474 7.3759 120.008 6.55858C120.543 5.74125 121.255 5.11346 122.146 4.67518C123.036 4.23691 124.134 4.01777 125.44 4.01777C126.627 4.01777 127.637 4.21321 128.468 4.60411C129.311 4.98316 129.993 5.53396 130.516 6.25652C131.05 6.97909 131.436 7.85564 131.673 8.88617C131.923 9.90487 132.047 11.0539 132.047 12.3331V16.633H127.435V12.6352C127.435 11.0953 127.304 9.96409 127.043 9.24153C126.782 8.50713 126.259 8.13992 125.476 8.13992C124.609 8.13992 124.027 8.53674 123.731 9.33037C123.446 10.1122 123.303 11.2078 123.303 12.6174V27.2227C123.303 28.3124 123.362 29.2067 123.481 29.9056C123.612 30.5926 123.826 31.102 124.122 31.4336C124.419 31.7535 124.835 31.9134 125.369 31.9134C126.176 31.9134 126.722 31.5343 127.007 30.7762C127.292 30.0181 127.435 28.8158 127.435 27.1693V22.6918H132.119V27.116C132.119 29.0942 131.887 30.7466 131.424 32.0733C130.961 33.3881 130.225 34.3713 129.216 35.0228C128.218 35.6743 126.918 36 125.316 36Z" fill="#14C9C9"/>
<path d="M137.8 35.6446V8.49528H134.131V4.37313H146.081V8.49528H142.555V35.6446H137.8Z" fill="#14C9C9"/>
<path d="M155.359 36C153.733 36 152.403 35.6565 151.37 34.9695C150.349 34.2824 149.595 33.2637 149.108 31.9134C148.621 30.563 148.378 28.8928 148.378 26.9028V12.5997C148.378 10.7992 148.615 9.2593 149.09 7.98001C149.565 6.70072 150.319 5.71756 151.352 5.03054C152.385 4.34351 153.739 4 155.413 4C156.671 4 157.734 4.19545 158.6 4.58634C159.467 4.97723 160.168 5.54581 160.702 6.29206C161.236 7.02647 161.622 7.92671 161.859 8.99278C162.109 10.047 162.233 11.2493 162.233 12.5997V26.9028C162.233 28.8928 161.996 30.563 161.521 31.9134C161.058 33.2637 160.322 34.2824 159.313 34.9695C158.304 35.6565 156.986 36 155.359 36ZM155.359 31.8778C155.953 31.8778 156.398 31.7002 156.695 31.3448C156.992 30.9894 157.188 30.4505 157.282 29.7279C157.389 28.9935 157.443 28.0696 157.443 26.9561V12.3865C157.443 11.0242 157.312 9.97594 157.051 9.24153C156.802 8.49528 156.256 8.12215 155.413 8.12215C154.546 8.12215 153.958 8.48344 153.649 9.206C153.341 9.91671 153.186 10.9709 153.186 12.3687V26.9561C153.186 28.0933 153.234 29.0291 153.329 29.7635C153.436 30.486 153.644 31.0191 153.952 31.3626C154.273 31.7061 154.742 31.8778 155.359 31.8778Z" fill="#14C9C9"/>
<path d="M166.579 35.6446V4.37313H173.364C174.943 4.37313 176.201 4.61595 177.139 5.10161C178.077 5.57542 178.754 6.33352 179.17 7.3759C179.597 8.40644 179.811 9.76272 179.811 11.4448V12.4042C179.811 14.027 179.597 15.3655 179.17 16.4198C178.754 17.4621 178.054 18.1906 177.068 18.6052C177.887 18.8777 178.54 19.3692 179.027 20.08C179.526 20.7788 179.882 21.6376 180.096 22.6563C180.309 23.6631 180.416 24.7707 180.416 25.9789V26.7785C180.404 28.8632 180.161 30.563 179.686 31.8778C179.211 33.1808 178.469 34.1344 177.46 34.7385C176.451 35.3426 175.133 35.6446 173.506 35.6446H166.579ZM171.352 31.9489H173.043C173.673 31.9489 174.171 31.8127 174.539 31.5403C174.919 31.256 175.192 30.7881 175.359 30.1366C175.525 29.4851 175.608 28.5967 175.608 27.4714V24.9484C175.608 23.4322 175.459 22.3306 175.163 21.6435C174.878 20.9447 174.278 20.5952 173.364 20.5952H171.352V31.9489ZM171.352 17.0239H173.115C173.53 17.0239 173.868 16.9646 174.13 16.8462C174.391 16.7277 174.593 16.5264 174.735 16.2421C174.878 15.946 174.973 15.5373 175.02 15.0161C175.079 14.4949 175.109 13.8316 175.109 13.0261V11.1427C175.109 10.3017 175.032 9.66204 174.878 9.22376C174.723 8.78549 174.486 8.48936 174.165 8.33537C173.857 8.18138 173.453 8.10439 172.954 8.10439H171.352V17.0239Z" fill="#14C9C9"/>
<path d="M184.21 35.6446V4.37313H188.982V35.6446H184.21Z" fill="#14C9C9"/>
<path d="M193.791 35.6446V4.37313H198.563V18.7651L203.336 4.37313H208.269L203.069 19.7957L208.679 35.6446H203.639L198.599 21.0394V35.6446H193.791Z" fill="#14C9C9"/>
<path d="M211.279 35.6446V4.37313H221.786V8.47751H216.052V17.5747H221.501V21.5902H216.052V31.5403H222V35.6446H211.279Z" fill="#14C9C9"/>
<defs>
<clipPath id="clip0_220_2149">
<rect width="65" height="40" fill="white"/>
</clipPath>
</defs>
</svg>
